<?xml version="1.0" encoding="utf-8"?>
<!-- Generator: Adobe Illustrator 27.0.0, SVG Export Plug-In . SVG Version: 6.00 Build 0)  -->
<svg version="1.1" id="Layer_1" xmlns="http://www.w3.org/2000/svg" xmlns:xlink="http://www.w3.org/1999/xlink" x="0px" y="0px"
	 viewBox="0 0 494.3 133.6" style="enable-background:new 0 0 494.3 133.6;" xml:space="preserve">
<style type="text/css">
	.st0{fill:#FFFFFF;}
	.st1{fill:#9E906A;}
</style>
<path class="st0" d="M347.7,94.1c-0.4,1-0.7,1.6-1.1,2c-0.5,0.5-1.2,0.7-2.7,0.7c-1.2,0-1.8-0.1-2.2-0.3c-0.3-0.2-0.5-0.7-0.5-1.8
	v-3.3h2.1c1.7,0,1.8,0.2,2.1,1.7h0.8v-4.3h-0.8c-0.3,1.4-0.4,1.6-2.1,1.6h-2.1v-4.1c0-0.8,0.1-0.8,0.8-0.8h1.5c1.5,0,2,0.2,2.3,0.7
	c0.3,0.3,0.5,0.8,0.8,1.7l0.8-0.1c-0.1-1.3-0.2-2.7-0.2-3.3H337v0.8c1.8,0.1,2,0.3,2,2.3v6.9c0,2-0.1,2.2-2.2,2.4v0.8h11
	c0.2-0.6,0.6-2.7,0.7-3.5L347.7,94.1z M329.2,88c-0.2-1.4-0.3-2.5-0.5-3.3c-0.5-0.1-1.6-0.5-2.9-0.5c-2.9,0-4.7,1.6-4.7,3.9
	c0,2.2,2,3.2,3.6,3.8l0.6,0.3c1.1,0.5,2.3,1.1,2.3,2.7c0,1.3-0.9,2.3-2.3,2.3c-2.2,0-3.4-2.2-3.9-3.8l-0.8,0.1
	c0.2,1.4,0.5,3.1,0.7,3.5c0.5,0.3,1.9,1,3.7,1c2.8,0,4.9-1.7,4.9-4.1c0-2.3-1.7-3.3-3.6-4l-0.5-0.2c-1.4-0.6-2.5-1.1-2.5-2.6
	c0-1.1,0.8-2.1,2.1-2.1c1.7,0,2.5,1.3,3,3.1L329.2,88z M313.8,84.6h-5.5v0.8c1.6,0.1,2.1,0.3,2.2,1.3c0.1,0.7,0.1,1.5,0.1,3.5v1.3
	c0,3.3-1.2,5.3-3.7,5.3c-2.4,0-3.7-1.8-3.7-5v-4.1c0-2,0.1-2.1,1.9-2.3v-0.8h-6.2v0.8c1.8,0.2,2,0.3,2,2.3v4.7
	c0,2.4,0.7,3.9,1.8,4.8c1,0.8,2.2,1,3.6,1c1.5,0,2.9-0.5,3.9-1.5c1.2-1.2,1.6-3,1.6-4.9v-1.6c0-1.9,0.1-2.8,0.1-3.5
	c0.1-1,0.6-1.2,1.9-1.3V84.6z M284.6,85.1c2.9,0,4.6,3.2,4.6,6.4c0,4.1-2,5.7-4.1,5.7c-2.8,0-4.7-2.7-4.7-6.5
	C280.4,87,282.4,85.1,284.6,85.1 M284.8,84.2c-3.1,0-7.1,2.2-7.1,7.2c0,3.4,2.6,6.7,7.1,6.7c3.4,0,7-2.4,7-7.1
	C291.9,87.1,289,84.2,284.8,84.2 M270.4,97.7V97c-1.8-0.2-2-0.3-2-2.4v-6.9c0-2.1,0.2-2.2,2-2.4v-0.7h-6.2v0.8
	c1.8,0.2,1.9,0.3,1.9,2.4v2.5h-6.7v-2.5c0-2.1,0.2-2.2,1.9-2.4v-0.8h-6.3v0.8c1.9,0.2,2.1,0.3,2.1,2.4v6.9c0,2.1-0.2,2.2-2,2.4v0.8
	h6.2V97c-1.7-0.1-1.9-0.3-1.9-2.4v-3.3h6.7v3.3c0,2-0.2,2.2-2,2.4v0.8H270.4z M248,88.1c-0.1-1.2-0.3-3.2-0.3-4.1h-0.6
	c-0.3,0.4-0.5,0.5-1.1,0.5h-8.5c-0.5,0-0.8-0.1-1.1-0.5h-0.6c0,1-0.2,2.5-0.3,4.1h0.8c0.2-1.1,0.4-1.6,0.7-2
	c0.4-0.5,0.8-0.7,2.6-0.7h0.9v9.1c0,2-0.2,2.2-2.1,2.3v0.8h6.7v-0.8c-2.1-0.1-2.2-0.3-2.2-2.4v-9.1h1.2c1.3,0,1.9,0.2,2.2,0.7
	c0.3,0.3,0.5,1,0.7,2.1L248,88.1z M227.9,88c-0.2-1.4-0.3-2.5-0.5-3.3c-0.5-0.1-1.6-0.5-2.9-0.5c-2.9,0-4.7,1.6-4.7,3.9
	c0,2.2,2,3.2,3.6,3.8l0.6,0.3c1.1,0.5,2.3,1.1,2.3,2.7c0,1.3-0.9,2.3-2.3,2.3c-2.2,0-3.4-2.2-3.9-3.8l-0.8,0.1
	c0.2,1.4,0.5,3.1,0.7,3.5c0.5,0.3,1.9,1,3.7,1c2.8,0,4.9-1.7,4.9-4.1c0-2.3-1.7-3.3-3.6-4l-0.5-0.2c-1.4-0.6-2.5-1.1-2.5-2.6
	c0-1.1,0.8-2.1,2.1-2.1c1.7,0,2.5,1.3,3,3.1L227.9,88z M211.4,94.1c-0.4,1-0.7,1.6-1.1,2c-0.5,0.5-1.2,0.7-2.7,0.7
	c-1.2,0-1.8-0.1-2.2-0.3c-0.3-0.2-0.5-0.7-0.5-1.8v-3.3h2.1c1.7,0,1.8,0.2,2.1,1.7h0.8v-4.3h-0.8c-0.3,1.4-0.4,1.6-2.1,1.6h-2.1
	v-4.1c0-0.8,0.1-0.8,0.8-0.8h1.5c1.5,0,2,0.2,2.3,0.7c0.3,0.3,0.5,0.8,0.8,1.7l0.8-0.1c-0.1-1.3-0.2-2.7-0.2-3.3h-10.2v0.8
	c1.8,0.1,2,0.3,2,2.3v6.9c0,2-0.1,2.2-2.2,2.4v0.8h11c0.2-0.6,0.6-2.7,0.7-3.5L211.4,94.1z M193.8,84.6h-5.5v0.8
	c1.6,0.1,2.1,0.3,2.2,1.3c0.1,0.7,0.1,1.5,0.1,3.5v1.3c0,3.3-1.2,5.3-3.7,5.3c-2.4,0-3.7-1.8-3.7-5v-4.1c0-2,0.1-2.1,1.9-2.3v-0.8
	h-6.2v0.8c1.8,0.2,2,0.3,2,2.3v4.7c0,2.4,0.7,3.9,1.8,4.8c1,0.8,2.2,1,3.6,1c1.5,0,2.9-0.5,3.9-1.5c1.2-1.2,1.6-3,1.6-4.9v-1.6
	c0-1.9,0.1-2.8,0.1-3.5c0.1-1,0.6-1.2,1.9-1.3V84.6z M172.7,89.2h-7.2v0.8c2.8,0.2,3,0.4,3,2.4v2.4c0,1.2-0.3,1.5-0.9,1.8
	c-0.6,0.3-1.5,0.5-2.5,0.5c-5.5,0-7.9-4.8-7.9-8.9c0-5.3,3.2-8.4,7.5-8.4c2.7,0,4.9,0.9,5.5,4.4l0.8-0.2c-0.2-1.9-0.4-3.4-0.5-4.4
	c-0.9-0.2-3.1-0.8-5.4-0.8c-5.6,0-10.8,3.2-10.8,9.8c0,5.6,4.2,9.5,10.4,9.5c2.3,0,4.6-0.6,6.4-1c-0.2-0.8-0.2-1.7-0.2-2.7V92
	c0-1.7,0.1-1.8,1.8-2.1V89.2z"/>
<path class="st0" d="M472.6,56.7c-0.7,2-1.4,3.1-2.1,3.9c-1,1-2.4,1.4-5.1,1.4c-2.3,0-3.5-0.1-4.2-0.5c-0.7-0.4-0.9-1.4-0.9-3.5
	v-6.3h4c3.3,0,3.5,0.4,4,3.2h1.5v-8.2h-1.5c-0.5,2.6-0.8,3-4,3h-4v-7.8c0-1.5,0.1-1.5,1.6-1.5h2.9c2.9,0,3.8,0.4,4.5,1.3
	c0.5,0.7,1,1.6,1.5,3.3l1.5-0.1c-0.2-2.5-0.4-5.2-0.4-6.3h-19.6V40c3.5,0.2,3.8,0.5,3.8,4.5v13.2c0,3.9-0.3,4.2-4.1,4.6v1.5h21
	c0.3-1.1,1.1-5.1,1.4-6.7L472.6,56.7z M446.3,56.1c-2,4.4-4.5,6.5-8.4,6.5c-5.2,0-9.6-4.8-9.6-11.9c0-6.5,3.9-11.2,9.4-11.2
	c4,0,6.7,1.7,7.8,6.4l1.5-0.3c-0.3-2.6-0.4-4.6-0.7-6.7c-1.5-0.3-4.3-1.1-7.7-1.1c-8.7,0-15.4,5.4-15.4,13.6
	c0,6.7,4.7,13.1,14.6,13.1c2.7,0,6.7-0.8,7.8-1.1c0.8-1.4,1.8-5,2.2-6.9L446.3,56.1z M408.8,53.3h-7.3l3.6-9.5h0.1L408.8,53.3z
	 M420.4,63.7v-1.5c-2.4-0.2-3.5-0.5-4.7-3.7l-8.4-20.8l-1.7,0.4l-8,19.5c-1.6,4-2.7,4.4-5.2,4.6v1.5h9.8v-1.5L401,62
	c-1.6-0.2-2.1-0.7-1.5-2.8c0.4-1.5,0.9-2.8,1.3-3.9h8.9l1.6,4.1c0.7,2,0.4,2.4-1.3,2.6l-1,0.1v1.5H420.4z M387.6,56.4
	c-0.7,2.1-1.3,3.3-2,4.1c-0.9,1-2.3,1.4-4.8,1.4c-1.8,0-3.2-0.1-4-0.4c-0.8-0.4-1-1.4-1-3.3v-14c0-3.9,0.4-4.1,4.1-4.4v-1.5h-12.3
	v1.5c3.5,0.3,3.9,0.4,3.9,4.4v13.5c0,3.9-0.3,4.2-4.1,4.5v1.5h20.3c0.4-1.2,1.2-5.4,1.5-7.1L387.6,56.4z M345.7,33.3
	c0-1.5,0.2-2.2,0.6-2.6c0.4-0.4,1.5-0.7,3-0.7c4.5,0,8.2,2.5,8.2,8.4c0,6.9-4.4,8.8-7.9,8.8c-1.8,0-3.3-0.4-4-0.7V33.3z M336.7,28.3
	v1.5c4,0.3,4.5,0.5,4.5,5.3v21.8c0,4.5-0.4,5-4.8,5.3v1.5h14.7v-1.5c-4.9-0.3-5.4-0.6-5.4-5.2v-8.5l4,1c0.6,0.1,1.6,0.1,2.4,0
	c5.3-0.7,10.6-4.1,10.6-11.2c0-3.6-1.4-6.1-3.5-7.7c-2.2-1.6-5.3-2.3-9.1-2.3H336.7z M318.4,45.1c-0.4-2.7-0.7-4.7-1-6.4
	c-1-0.3-3-1-5.5-1c-5.5,0-9,3.2-9,7.6c0,4.1,3.9,6.1,6.9,7.3l1.2,0.5c2.1,0.9,4.4,2.1,4.4,5.1c0,2.5-1.8,4.4-4.5,4.4
	c-4.1,0-6.5-4.2-7.5-7.2l-1.6,0.3c0.4,2.7,1,5.9,1.3,6.8c1,0.6,3.6,1.9,7.1,1.9c5.4,0,9.4-3.3,9.4-7.8c0-4.4-3.3-6.3-6.9-7.7l-1-0.4
	c-2.7-1.1-4.8-2.2-4.8-5c0-2.1,1.5-4,4.1-4c3.2,0,4.8,2.6,5.8,5.9L318.4,45.1z M292.2,25c-0.9,0-2.3,0.7-2.3,2.1
	c0,0.7,0.3,1,0.7,1.1c1.8,0.3,3.4,1.5,3.4,3.4c0,2.2-1.6,3.5-4.2,4.6l0.5,1.5c3.4-0.9,7-3.3,7-7.1C297.3,27.1,294.5,25,292.2,25
	 M286.3,38.4h-10.6v1.5c3.1,0.2,4,0.7,4.2,2.4c0.2,1.4,0.3,3.2,0.3,6.9v7h-0.1l-15.4-17.8h-7.4v1.5c3.8,0.3,4.6,1.1,4.6,5.6v7.3
	c0,3.8-0.2,5.8-0.3,7.1c-0.2,1.6-1.2,2.1-3.7,2.3v1.5h10.6v-1.5c-3-0.2-4-0.7-4.2-2.4c-0.2-1.3-0.3-3.3-0.3-7v-8.5l0.1-0.1
	l16.4,19.7h1.8V49.3c0-3.8,0.2-5.5,0.3-7c0.2-1.7,1.1-2.2,3.8-2.4V38.4z M239.8,39.5c5.6,0,8.9,6.2,8.9,12.3
	c0,7.9-3.8,10.9-7.8,10.9c-5.3,0-9.1-5.2-9.1-12.4C231.8,43.1,235.7,39.5,239.8,39.5 M240.3,37.7c-5.9,0-13.6,4.2-13.6,13.8
	c0,6.4,5,12.8,13.7,12.8c6.6,0,13.5-4.6,13.5-13.6C253.8,43.4,248.3,37.7,240.3,37.7 M222.6,38.4h-8.5l-8.6,17.7l-7.9-17.7h-8.4V40
	c3.9,0.3,4.2,0.5,3.9,4.9l-0.7,7.6c-0.3,3.5-0.6,5.7-0.9,7.3c-0.3,1.6-1.2,2.2-3.6,2.4v1.5h10.2v-1.5c-2.9-0.2-3.7-0.7-3.8-2.4
	c-0.1-1.4-0.1-3.3,0.2-7.1l0.5-10.1h0.2l8.3,20.7h1.1l9.6-21.1h0.2l-0.1,15.7c-0.1,3.8-0.3,4-3.9,4.3v1.5h12.2v-1.5
	c-3.8-0.3-4-0.5-4.1-4.3l-0.3-13.7c-0.1-3.8,0.2-4,4.2-4.3V38.4z M170.9,48.4h-10c1.6-4.5,3.4-9.2,5.1-13.9h0.1L170.9,48.4z
	 M184.8,63.7v-1.5c-3.5-0.3-4.2-0.8-6-5.5c-3.5-9.5-7.1-19.8-10.5-29.2l-1.7,0.5l-11.3,28.6c-1.9,4.8-2.7,5.1-6.1,5.6v1.5h11.8v-1.5
	c-4.1-0.4-4.6-0.9-3.4-4.4c0.7-2.3,1.5-4.6,2.4-7h11.6c1.2,3.3,2.3,6.3,3,8.4c0.7,2.1,0.2,2.6-3.2,3v1.5H184.8z"/>
<g>
	<path class="st1" d="M48,109.2L48,109.2L48,109.2L48,109.2z M58.7,101.9C58.7,101.9,58.7,101.9,58.7,101.9
		C58.8,101.9,58.7,101.8,58.7,101.9C58.7,101.8,58.7,101.8,58.7,101.9C58.7,101.9,58.7,101.9,58.7,101.9 M47.6,108.8
		c-0.3,0-0.5-0.1-0.7,0.1c-0.1,0.1,0,0.1,0.1,0.2C47.2,109.1,47.4,109.1,47.6,108.8 M77.1,29.8c-0.1-0.1-0.2-0.2-0.3-0.2
		c-0.1,0-0.3,0-0.3,0.2c0,0.2,0.1,0.2,0.3,0.2C76.9,30,77.1,30,77.1,29.8 M86.2,25.8c-0.2,0-0.4,0-0.3,0.2c0,0.2,0.2,0.2,0.4,0.2
		c0.2,0,0.4-0.1,0.4-0.3C86.6,25.7,86.4,25.8,86.2,25.8 M56.1,25.8c-0.1,0.1-0.4,0-0.4,0.3c0,0.2,0.2,0.2,0.4,0.2
		c0.2,0,0.4-0.1,0.4-0.3C56.5,25.7,56.2,25.8,56.1,25.8 M65.6,67.6c0.2,0,0.4,0,0.3-0.2c-0.1-0.3-0.4-0.1-0.6-0.2
		c-0.1-0.1-0.3,0.1-0.3,0.2C65.2,67.7,65.5,67.5,65.6,67.6 M81.6,102.5c0.4,0,0.8,0,1.2,0c0.1,0,0.2,0,0.2-0.1
		c0-0.1-0.1-0.2-0.2-0.2C82.4,102.2,82,102.1,81.6,102.5 M59.2,102.5h1.5C60.4,102,59.8,102,59.2,102.5 M116.2,78.4
		c0.7,0,1.3,0,1.9,0c0.1,0,0.2,0,0.2-0.1c0,0,0-0.1-0.1-0.1C117.9,77.8,116.6,77.9,116.2,78.4 M85.5,26.5c-0.6-0.5-1.2-0.4-1.7,0
		c-0.1,0.1-0.2,0.1-0.2,0.2c0,0.1,0.1,0.1,0.1,0.1C84.4,26.7,84.9,26.6,85.5,26.5 M24.1,78.2c0,0.1,0,0.1,0,0.2c0.6,0,1.1,0,1.7,0
		c0.1,0,0.2,0,0.2-0.1c0-0.1-0.1-0.2-0.2-0.2C25.3,77.8,24.7,77.8,24.1,78.2 M46.3,68.7c0.3-0.1,0.8,0.1,0.8-0.3
		c0-0.4-0.5-0.2-0.8-0.2c-0.2,0-0.7,0-0.6,0.3C45.7,68.9,46.1,68.6,46.3,68.7 M117.4,86.5c-0.2,0-0.2,0-0.3,0c-0.2,0-0.5,0-0.5,0.2
		c0,0.2,0.3,0.4,0.6,0.4c0.1,0,0.1,0,0.2,0c0.2-0.1,0.7-0.1,0.6-0.4C118,86.3,117.6,86.6,117.4,86.5 M96.4,107.7L96.4,107.7
		c-0.1,0-0.2,0-0.3,0c-0.1,0-0.3-0.1-0.4,0.1c0,0.2,0.2,0.3,0.3,0.3c0.2,0,0.4,0.1,0.6,0c0.3,0,0.7,0,0.7-0.3c0-0.2-0.4-0.2-0.6-0.2
		C96.6,107.7,96.5,107.7,96.4,107.7 M46.7,67.8c0.3,0,0.6,0,0.8-0.1c0.1-0.1,0.2-0.1,0.2-0.3c0-0.1-0.1-0.2-0.2-0.2
		c-0.4,0-0.8,0-1.2,0c-0.2,0-0.3,0.1-0.2,0.3c0,0.2,0.1,0.2,0.3,0.2C46.5,67.8,46.6,67.8,46.7,67.8 M71.2,13.7
		C71.2,13.7,71.2,13.7,71.2,13.7c0.2,0,0.4,0,0.7,0c0.1,0,0.3,0,0.3-0.1c0-0.2-0.1-0.3-0.3-0.3c-0.5-0.1-1-0.1-1.4,0
		c-0.1,0-0.3,0.2-0.3,0.3c0,0.2,0.3,0.2,0.4,0.2C70.8,13.7,71,13.7,71.2,13.7 M45.9,70.6c0.3,0,0.6,0,0.8,0c0.1,0,0.2-0.1,0.2-0.2
		c0-0.1-0.1-0.2-0.2-0.2c-0.5-0.1-1.1-0.1-1.6,0c-0.1,0-0.2,0.1-0.2,0.3c0,0.1,0.1,0.2,0.3,0.2C45.4,70.6,45.6,70.6,45.9,70.6
		 M25.3,86.5L25.3,86.5c-0.2,0-0.5,0-0.7,0c-0.1,0-0.2,0-0.2,0.1c0,0.1,0,0.2,0.2,0.3c0.4,0.2,0.9,0.2,1.3,0
		c0.2-0.1,0.3-0.2,0.3-0.4c-0.1-0.2-0.2-0.1-0.4-0.1C25.6,86.5,25.5,86.5,25.3,86.5 M82.9,33.9C82.9,34,82.9,34,82.9,33.9
		c0.1,0,0.2,0,0.3,0c0.2,0,0.4,0.1,0.5-0.2c0-0.3-0.2-0.3-0.4-0.4c-0.4-0.1-0.9-0.1-1.3,0.2c-0.1,0.1-0.2,0.1-0.2,0.2
		c0,0.1,0.1,0.2,0.3,0.2C82.3,34,82.6,34,82.9,33.9 M46,69.7L46,69.7c0.2,0,0.4,0,0.7,0c0.2,0,0.3-0.1,0.3-0.3
		c0-0.2-0.1-0.2-0.3-0.2c-0.3,0-0.7-0.1-1,0c-0.2,0-0.6,0-0.5,0.4c0,0.3,0.3,0.2,0.5,0.2C45.9,69.7,46,69.7,46,69.7 M54.4,67.8
		c0.1,0,0.3,0,0.5-0.1c0.1-0.1,0.4-0.2,0.3-0.4c0-0.2-0.3-0.2-0.4-0.2c-0.3,0-0.6,0-0.8,0c-0.2,0-0.4,0-0.4,0.2
		c0,0.2,0.2,0.3,0.4,0.4C54,67.8,54.2,67.8,54.4,67.8 M45.8,71.6C45.8,71.6,45.8,71.6,45.8,71.6c0.3,0,0.6,0,0.9,0
		c0.2,0,0.3-0.1,0.3-0.3c0-0.2-0.1-0.2-0.3-0.2c-0.6-0.1-1.2,0.1-1.9,0c-0.1,0-0.3,0.1-0.3,0.3c0,0.2,0.2,0.2,0.3,0.2
		C45.2,71.6,45.5,71.6,45.8,71.6 M77.5,28.7L77.5,28.7c-0.3,0-0.6,0-0.9,0c-0.1,0-0.3,0-0.3,0.2c0,0.2,0.1,0.3,0.2,0.4
		c0.2,0.1,1.8,0,1.9-0.1c0.1-0.1,0.2-0.1,0.2-0.3c0-0.1-0.2-0.1-0.3-0.1C78,28.7,77.7,28.7,77.5,28.7 M45.7,72.6
		C45.7,72.6,45.7,72.6,45.7,72.6c0.4,0,0.7,0,1.1,0c0.2,0,0.4,0,0.4-0.2c0-0.2-0.2-0.2-0.4-0.2c-0.7,0-1.3,0-2-0.1
		c-0.2,0-0.4,0-0.6,0.1c-0.1,0.1-0.2,0.2-0.1,0.3c0,0.2,0.2,0.1,0.3,0.1C44.8,72.6,45.2,72.6,45.7,72.6 M23.3,82.2
		C23.3,82.2,23.3,82.2,23.3,82.2c0.4,0,0.7,0,1.1,0c0.1,0,0.3,0,0.3-0.2c0-0.2-0.1-0.2-0.3-0.2c-0.4-0.1-0.8,0-1.2,0
		c-0.3,0-0.6,0-0.9,0c-0.2,0-0.4,0.1-0.3,0.3c0,0.2,0.2,0.2,0.4,0.2C22.7,82.2,23,82.2,23.3,82.2 M118.9,82.7
		C118.9,82.7,118.9,82.7,118.9,82.7c-0.4,0-0.9,0-1.3,0c-0.1,0-0.3,0.1-0.3,0.2c0,0.2,0.1,0.2,0.3,0.2c0.8,0,1.6,0,2.3,0
		c0.2,0,0.3-0.1,0.3-0.3c0-0.2-0.2-0.2-0.3-0.2C119.6,82.7,119.3,82.7,118.9,82.7 M61.3,108.2L61.3,108.2c0.4,0,0.7,0,1.1,0
		c0.2,0,0.5,0,0.5-0.2c0-0.2-0.3-0.3-0.5-0.2c-0.6,0.1-1.1,0-1.7,0c-0.2,0-0.4,0-0.6,0.1c-0.1,0-0.3,0.1-0.2,0.3
		c0,0.2,0.2,0.2,0.3,0.2C60.5,108.2,60.9,108.2,61.3,108.2 M22.8,82.6c-0.1,0-0.1,0-0.2,0c-0.2,0-0.5-0.1-0.5,0.2
		c0,0.4,0.3,0.3,0.6,0.3c0.6,0,1.3,0,1.9,0c0.2,0,0.4,0.1,0.4-0.2c0-0.2-0.2-0.3-0.4-0.3C24,82.7,23.4,82.7,22.8,82.6 M46.5,103.4
		L46.5,103.4c0.5,0,1.1,0,1.6,0c0.1,0,0.3,0,0.3-0.2c0-0.2-0.2-0.1-0.3-0.2c-0.4-0.1-0.8,0-1.3,0c-0.6,0-1.2,0-1.8,0.1
		c-0.2,0-0.4,0-0.4,0.2c0,0.2,0.2,0.1,0.4,0.1C45.5,103.4,46,103.4,46.5,103.4 M47.6,66.3c-0.3,0-0.8-0.1-1.2,0.1
		c-0.1,0-0.2,0.1-0.2,0.2c0,0.1,0.1,0.2,0.2,0.2c0.7,0,1.5,0.1,2.2-0.1c0.1,0,0.3-0.1,0.3-0.3c0-0.2-0.2-0.1-0.4-0.1
		C48.2,66.3,48,66.3,47.6,66.3 M81.6,109.2C81.6,109.2,81.6,109.2,81.6,109.2c0.4,0,0.9,0,1.3,0c0.1,0,0.2,0,0.2-0.1
		c0-0.1,0-0.2-0.1-0.2c-0.1-0.1-0.3-0.1-0.4-0.1c-0.8,0-1.6,0-2.3,0c-0.1,0-0.3,0-0.3,0.2c0,0.2,0.2,0.3,0.3,0.3
		C80.7,109.2,81.2,109.2,81.6,109.2 M60.7,109.2L60.7,109.2c0.4,0,0.9,0,1.3,0c0.2,0,0.4,0,0.4-0.3c0-0.2-0.2-0.2-0.4-0.2
		c-0.3,0-0.5,0-0.8,0c-0.5,0-1.1,0-1.6,0c-0.2,0-0.5,0-0.5,0.3c0,0.3,0.3,0.2,0.4,0.2C60,109.2,60.3,109.2,60.7,109.2 M24.2,84.1
		C24.2,84.1,24.2,84.1,24.2,84.1c0.4,0,0.7,0,1.1,0c0.1,0,0.3,0.1,0.4-0.1c0-0.2-0.2-0.3-0.3-0.3c-0.8,0-1.7-0.2-2.5-0.1
		c-0.1,0-0.3,0-0.3,0.2c0,0.2,0.2,0.2,0.3,0.2C23.2,84.1,23.7,84.1,24.2,84.1 M93.4,108.2L93.4,108.2c0.5,0,0.9,0,1.4,0
		c0.2,0,0.4,0.2,0.5-0.1c0-0.3-0.3-0.3-0.5-0.3c-0.9,0-1.8-0.1-2.8-0.1c-0.1,0-0.2,0-0.3,0.1c-0.1,0-0.3,0.1-0.3,0.3
		c0,0.2,0.2,0.1,0.3,0.1C92.3,108.2,92.9,108.2,93.4,108.2 M69.3,23.3c0.4,0,0.9,0,1.3,0c0.2,0,0.4,0,0.4-0.3c0-0.3-0.3-0.2-0.4-0.2
		c-0.9,0-1.7,0-2.6,0c-0.2,0-0.3,0-0.3,0.3c0,0.2,0.2,0.2,0.4,0.2C68.4,23.4,68.9,23.3,69.3,23.3 M119,82.2
		C119,82.2,119,82.2,119,82.2l1.1,0c0.2,0,0.3-0.1,0.3-0.3c0-0.2-0.1-0.3-0.3-0.3c-0.7,0-1.4,0-2.1,0c-0.2,0-0.4,0.1-0.3,0.3
		c0,0.2,0.2,0.2,0.3,0.2C118.3,82.2,118.7,82.2,119,82.2 M46,105.3C46,105.3,46,105.3,46,105.3c0.6,0,1.3,0,1.9,0
		c0.2,0,0.4,0,0.4-0.2c0-0.2-0.2-0.2-0.4-0.2c-1.3,0-2.5,0-3.8,0c-0.1,0-0.3,0-0.3,0.2c0,0.2,0.2,0.2,0.4,0.2
		C44.8,105.3,45.4,105.3,46,105.3 M82.3,103.4C82.3,103.4,82.3,103.4,82.3,103.4c0.5,0,1.1,0,1.6,0c0.2,0,0.4,0.1,0.5-0.1
		c0-0.2-0.2-0.2-0.4-0.3c-1.1-0.2-2.3,0.1-3.4,0c0,0,0,0-0.1,0c-0.1,0-0.3,0.1-0.3,0.2c0,0.2,0.2,0.2,0.3,0.2
		C81.1,103.4,81.7,103.4,82.3,103.4 M61.6,107.3C61.6,107.3,61.6,107.3,61.6,107.3c0.3,0,0.7,0,1,0c0.2,0,0.4,0.1,0.5-0.2
		c0-0.3-0.3-0.4-0.5-0.3c-0.6,0.1-1.1-0.1-1.7,0c-0.1,0-0.3,0-0.4,0.1c-0.1,0-0.2,0.1-0.2,0.3c0,0.2,0.1,0.2,0.3,0.2
		C60.8,107.3,61.2,107.3,61.6,107.3 M80.7,107.3L80.7,107.3c0.4,0,0.7,0,1.1,0c0.2,0,0.3,0,0.3-0.2c0-0.2-0.1-0.3-0.3-0.3
		c-0.7,0-1.5,0-2.2,0c-0.1,0-0.3,0-0.3,0.2c0,0.2,0.1,0.3,0.3,0.3C80,107.3,80.4,107.3,80.7,107.3 M118.3,84.2
		C118.3,84.1,118.3,84.1,118.3,84.2c0.5,0,0.9,0,1.4,0c0.2,0,0.4,0,0.3-0.3c0-0.2-0.2-0.2-0.3-0.2c-0.7-0.1-1.5,0.1-2.2,0
		c-0.2,0-0.4,0.1-0.6,0.1c-0.1,0-0.2,0.1-0.2,0.2c0,0.1,0.2,0.1,0.3,0.1C117.4,84.2,117.8,84.2,118.3,84.2 M81,108.3
		C81,108.3,81,108.3,81,108.3c0.4,0,0.8,0,1.2,0c0.1,0,0.4,0.1,0.4-0.2c0-0.2-0.1-0.3-0.4-0.3c-0.7,0-1.5,0-2.2,0
		c-0.2,0-0.4,0-0.4,0.2c0,0.2,0.2,0.3,0.4,0.3C80.3,108.3,80.6,108.3,81,108.3 M57.9,112.9c0-0.1,0-0.1,0-0.2h-5.1
		c0,0.1,0,0.1,0,0.2C54.4,113.1,56.1,113.2,57.9,112.9 M98.8,101.9c-0.4,0-0.9,0-1.3,0c-0.1,0-0.2,0-0.3,0.1c0,0.2,0.1,0.2,0.2,0.3
		c0.9,0.3,1.8,0.1,2.7,0c0.1,0,0.3-0.1,0.3-0.2c0-0.2-0.2-0.2-0.3-0.2C99.6,101.9,99.2,101.9,98.8,101.9 M45.6,73.5L45.6,73.5
		c0.5,0,1.1,0,1.6,0c0.1,0,0.3,0,0.3-0.2c0-0.2-0.1-0.2-0.3-0.2c-1.1,0-2.2,0-3.2,0c-0.2,0-0.3,0.1-0.3,0.3c0,0.2,0.2,0.2,0.3,0.2
		C44.6,73.5,45.1,73.5,45.6,73.5 M98.2,103.4c-0.3-0.3-0.5-0.4-0.7-0.4c-1,0-2.1,0-3.1,0c-0.1,0-0.3,0-0.3,0.2
		c0,0.2,0.1,0.3,0.3,0.3C95.6,103.4,96.8,103.4,98.2,103.4 M107.8,90.3L107.8,90.3c-0.5,0-1,0-1.6,0c-0.1,0-0.2,0-0.2,0.2
		c0,0.1,0.1,0.1,0.2,0.2c1,0.2,2.1,0.2,3.1,0c0.1,0,0.2-0.1,0.2-0.2c0-0.2-0.2-0.1-0.3-0.1C108.8,90.3,108.3,90.3,107.8,90.3
		 M36.4,90.5c-0.5-0.3-3.4-0.2-3.7,0C33.9,91,35.2,90.9,36.4,90.5 M95.4,102.5C95.4,102.5,95.4,102.5,95.4,102.5c0.4,0,0.9,0,1.3,0
		c0.1,0,0.2,0,0.2-0.1c0-0.1,0-0.2-0.1-0.2c-0.1-0.1-0.3-0.2-0.4-0.2c-0.9,0-1.7,0-2.6,0c-0.1,0-0.3,0.1-0.3,0.2
		c0,0.2,0.2,0.3,0.4,0.3C94.4,102.5,94.9,102.5,95.4,102.5 M96.3,106.3L96.3,106.3c0.6,0,1.2,0,1.8,0c0.2,0,0.4,0,0.4-0.2
		c0-0.2-0.2-0.2-0.3-0.2c-1.2,0-2.5,0-3.7,0c-0.2,0-0.4,0-0.3,0.3c0,0.2,0.2,0.2,0.4,0.2C95.2,106.3,95.7,106.3,96.3,106.3
		 M80.6,27.9c-0.3-0.2-0.6-0.2-0.8-0.2c-1.1,0-2.2,0-3.2,0c-0.2,0-0.5-0.1-0.5,0.2c0,0.3,0.3,0.3,0.5,0.3c1,0,2,0,3,0
		C79.9,28.2,80.2,28.1,80.6,27.9 M24.3,80.8C24.3,80.8,24.3,80.8,24.3,80.8c-0.6,0-1.2,0-1.8,0c-0.2,0-0.4,0-0.4,0.2
		c0,0.3,0.2,0.2,0.4,0.2c1.2,0,2.3,0,3.5,0c0.1,0,0.2,0,0.3,0c0.1-0.1,0.3-0.1,0.3-0.3c0-0.1-0.2-0.1-0.3-0.1
		C25.5,80.8,24.9,80.8,24.3,80.8 M71.1,14.1c-0.5,0.1-1.1-0.1-1.7,0.1c-0.2,0-0.4,0.1-0.4,0.3c0,0.3,0.3,0.2,0.4,0.2
		c1.1-0.1,2.3-0.1,3.4,0c0.2,0,0.4,0.1,0.4-0.1c0-0.2-0.2-0.3-0.3-0.3C72.3,14.1,71.7,14.2,71.1,14.1 M24.6,80.3L24.6,80.3
		c0.6,0,1.3,0,1.9,0c0.2,0,0.4,0,0.4-0.2c0-0.2-0.2-0.2-0.4-0.2c-0.9,0-1.9,0-2.8,0c-0.4,0-0.7,0-1.1,0c-0.2,0-0.4,0-0.4,0.3
		c0,0.2,0.3,0.2,0.4,0.2C23.3,80.3,23.9,80.3,24.6,80.3 M73,22.4C73,22.4,73,22.4,73,22.4c0.5,0,1.1,0,1.6,0c0.2,0,0.4-0.1,0.4-0.3
		c0-0.2-0.2-0.2-0.4-0.2c-1,0-2,0-3.1,0c-0.2,0-0.3,0.1-0.3,0.3c0,0.2,0.2,0.2,0.3,0.2C72.1,22.4,72.6,22.4,73,22.4 M81.8,105.3
		L81.8,105.3c0.8,0,1.5,0,2.3,0c0.2,0,0.4,0,0.4-0.2c0-0.2-0.2-0.2-0.4-0.2c-0.8-0.2-1.7,0.1-2.5,0c-0.6,0-1.3-0.2-1.9-0.1
		c-0.2,0-0.4,0.1-0.4,0.3c0,0.3,0.2,0.2,0.4,0.2C80.4,105.3,81.1,105.3,81.8,105.3 M45.8,74c-0.2,0-0.3,0-0.4,0
		c-0.6,0-1.2-0.1-1.8,0.1c-0.1,0-0.3,0.1-0.3,0.2c0,0.2,0.2,0.1,0.3,0.1c0.5,0.2,1.1,0.1,1.6,0c0.8-0.1,1.5,0,2.3,0
		c0.2,0,0.5,0.1,0.5-0.2c0-0.3-0.3-0.2-0.5-0.3C46.9,73.9,46.3,74,45.8,74 M82.3,35C82.3,34.9,82.3,34.9,82.3,35c0.4,0,0.8,0,1.2,0
		c0.2,0,0.6,0.1,0.6-0.2c0-0.4-0.4-0.3-0.6-0.4c-0.7,0-1.3,0-2,0c-0.3,0-0.5,0.1-0.7,0.3c-0.1,0.1-0.2,0.2-0.1,0.3
		c0.1,0.1,0.2,0.1,0.2,0.1C81.4,35,81.8,35,82.3,35 M113.7,88.9C113.7,88.9,113.7,88.9,113.7,88.9c0.6,0,1.3,0,1.9,0
		c0.2,0,0.4-0.1,0.4-0.3c0-0.2-0.3-0.2-0.4-0.2c-1.3,0-2.5-0.1-3.8,0c-0.2,0-0.4-0.1-0.4,0.1c0,0.3,0.3,0.3,0.4,0.3
		C112.5,88.9,113.1,88.9,113.7,88.9 M117.4,79.3c0.6,0,1.1,0,1.7,0c0.2,0,0.4,0.1,0.4-0.1c0-0.2-0.2-0.3-0.4-0.3
		c-0.6-0.1-1.1,0-1.7-0.1c-0.5-0.1-1.1-0.1-1.7,0c-0.2,0-0.4,0.1-0.4,0.3c0,0.2,0.3,0.2,0.4,0.2C116.3,79.3,116.9,79.3,117.4,79.3
		 M117.7,80.2C117.7,80.3,117.7,80.3,117.7,80.2c0.7,0,1.3,0,2,0c0.2,0,0.4,0,0.4-0.2c0-0.2-0.2-0.2-0.4-0.2c-1.3,0-2.7,0-4,0
		c-0.2,0-0.4,0-0.4,0.2c0,0.2,0.2,0.2,0.3,0.2C116.3,80.2,117,80.2,117.7,80.2 M46.1,103.9L46.1,103.9c-0.6,0-1.1,0-1.7,0
		c-0.3,0-0.7-0.1-0.7,0.3c0,0.3,0.4,0.2,0.7,0.2c1.2,0,2.3,0,3.5,0c0.2,0,0.5,0.1,0.5-0.2c0-0.3-0.3-0.3-0.5-0.3
		C47.4,103.9,46.7,103.9,46.1,103.9 M69.1,21.9L69.1,21.9c-0.5,0-1,0-1.6,0c-0.2,0-0.4,0-0.4,0.2c0,0.2,0.2,0.3,0.4,0.3
		c1.1,0,2.2,0,3.2,0c0.2,0,0.3-0.1,0.3-0.3c0-0.2-0.2-0.2-0.3-0.2C70.2,21.9,69.6,21.9,69.1,21.9 M93,108.7
		C93,108.7,93,108.7,93,108.7c-0.7,0-1.4,0-2.2,0c-0.2,0-0.4,0.1-0.4,0.3c0,0.3,0.2,0.2,0.4,0.2c1.2,0,2.5,0,3.7,0
		c0.2,0,0.3,0,0.5-0.1c0.1,0,0.3-0.1,0.3-0.2c0-0.2-0.2-0.2-0.4-0.2C94.4,108.7,93.7,108.7,93,108.7 M24.9,79.3
		C24.9,79.3,24.9,79.3,24.9,79.3c0.6,0,1.1,0,1.7,0c0.2,0,0.4,0,0.4-0.2c0-0.2-0.2-0.2-0.3-0.3c-0.1,0-0.3,0-0.4,0
		c-0.6,0-1.3,0-1.9,0c-0.4,0-0.7,0-1.1,0c-0.2,0-0.4,0.1-0.4,0.3c0,0.3,0.3,0.2,0.4,0.2C23.8,79.3,24.3,79.3,24.9,79.3 M107.7,89.5
		C107.7,89.5,107.7,89.5,107.7,89.5c-1,0-2,0-3,0c-0.1,0-0.4-0.1-0.4,0.2c0,0.2,0.2,0.2,0.4,0.2c0.1,0,0.3,0,0.4,0
		c1.8,0,3.7,0,5.5,0c0.2,0,0.4,0.1,0.4-0.2c0-0.3-0.3-0.2-0.5-0.2C109.6,89.5,108.6,89.5,107.7,89.5 M60.3,104.4L60.3,104.4
		c0.7,0,1.5,0,2.2,0c0.1,0,0.2,0,0.3-0.1c0-0.1-0.1-0.2-0.2-0.3c-0.1,0-0.3-0.1-0.4-0.1c-1.4,0-2.8,0-4.2,0c-0.2,0-0.4,0-0.4,0.2
		c0,0.3,0.2,0.2,0.4,0.2C58.8,104.4,59.5,104.4,60.3,104.4 M60.9,36.9L60.9,36.9c0.7,0,1.5,0,2.2,0c0.2,0,0.5,0,0.5-0.2
		c0-0.3-0.3-0.3-0.5-0.3c-1.4,0-2.7,0-4.1,0c-0.2,0-0.3,0-0.5,0.1c-0.1,0.1-0.3,0.1-0.3,0.3c0,0.2,0.2,0.1,0.3,0.1
		C59.4,36.9,60.1,36.9,60.9,36.9 M44.5,97.6L44.5,97.6c1,0,2.1,0,3.1,0c0.2,0,0.4,0,0.4-0.2c0-0.2-0.2-0.2-0.4-0.2
		c-0.8,0-1.5,0-2.3,0c-1.3,0-2.6,0-3.9,0c-0.2,0-0.4,0-0.4,0.2c0,0.2,0.3,0.1,0.4,0.1C42.5,97.6,43.5,97.6,44.5,97.6 M81.9,36.9
		L81.9,36.9c0.8,0,1.5,0,2.3,0c0.2,0,0.4,0,0.4-0.2c0-0.3-0.2-0.2-0.4-0.2c-0.9,0-1.8,0-2.7,0c-0.6,0-1.2,0-1.8,0
		c-0.2,0-0.4,0-0.4,0.3c0,0.3,0.3,0.2,0.4,0.2C80.4,36.9,81.1,36.9,81.9,36.9 M60.1,103.4L60.1,103.4c0.5,0,1.1,0,1.6,0
		c0.2,0,0.5,0.1,0.4-0.2c0-0.2-0.2-0.4-0.5-0.3c-0.3,0.1-0.6,0.1-0.9,0.1c-0.8,0-1.6,0-2.4,0c-0.2,0-0.4,0.1-0.4,0.3
		c0,0.2,0.2,0.2,0.4,0.2C58.9,103.4,59.5,103.4,60.1,103.4 M53.7,110.2c-0.2-0.4-0.5-0.5-0.9-0.5c-1.4,0-2.7-0.1-4.1-0.1
		c-0.2,0-0.4,0-0.6,0.1c-0.1,0-0.2,0-0.2,0.2c0,0.1,0.1,0.2,0.2,0.2c0.2,0,0.4,0,0.6,0.1c0.8,0,1.6,0,2.4,0.1
		C52,110.2,52.9,110.2,53.7,110.2 M96.4,104.4L96.4,104.4c0.6,0,1.2,0,1.8,0c0.2,0,0.4,0.1,0.5-0.2c0.1-0.3-0.2-0.3-0.4-0.3
		c-1.2,0-2.5,0-3.7,0c-0.2,0-0.4,0.1-0.4,0.3c0,0.3,0.2,0.2,0.4,0.2C95.2,104.4,95.8,104.4,96.4,104.4 M117.1,85.1
		C117.1,85.1,117.1,85.1,117.1,85.1c0.6,0,1.2,0,1.8,0c0.2,0,0.6,0.1,0.5-0.3c0-0.3-0.3-0.2-0.5-0.2c-1,0-2.1,0-3.1,0
		c-0.2,0-0.4,0.1-0.5,0.1c-0.2,0.1-0.4,0.1-0.3,0.3c0,0.2,0.2,0.1,0.4,0.1C115.9,85.1,116.5,85.1,117.1,85.1 M27.6,85.1
		c-0.5-0.4-0.9-0.4-1.4-0.5c-0.9-0.1-1.8,0.1-2.8-0.1c-0.1,0-0.3,0-0.4,0.1c-0.1,0-0.2,0.1-0.2,0.3c0,0.2,0.2,0.2,0.3,0.2
		c1,0.1,1.9,0.1,2.9,0.1C26.4,85.1,26.9,85.2,27.6,85.1 M57.1,110.2c0.7,0,1.2,0,1.8,0c0.9,0,1.7,0,2.6,0c0.2,0,0.4-0.1,0.4-0.3
		c0-0.2-0.2-0.2-0.4-0.2c-0.9,0-1.9,0-2.8,0C58.2,109.6,57.6,109.7,57.1,110.2 M118.2,81.2C118.2,81.2,118.2,81.2,118.2,81.2
		c0.6,0,1.2,0,1.8,0c0.2,0,0.4-0.1,0.4-0.3c0-0.2-0.2-0.3-0.4-0.3c-1.3,0-2.6,0-3.9,0c-0.1,0-0.3,0-0.4,0.2c0,0.2,0.2,0.2,0.3,0.3
		c0.1,0,0.3,0.1,0.4,0.1C117.1,81.2,117.7,81.2,118.2,81.2 M96.3,104.8C96.3,104.8,96.3,104.8,96.3,104.8c-0.6,0-1.2,0-1.8,0
		c-0.2,0-0.4-0.1-0.4,0.2c0,0.3,0.2,0.3,0.4,0.3c1.3,0,2.5,0,3.8,0c0.2,0,0.4,0,0.4-0.3c0-0.3-0.2-0.2-0.4-0.3
		C97.6,104.8,96.9,104.8,96.3,104.8 M45.8,75.5L45.8,75.5c0.8,0,1.6,0,2.5,0c0.2,0,0.4,0.1,0.4-0.2c0-0.2-0.2-0.3-0.5-0.3
		c-1.7,0-3.3,0-5,0c-0.2,0-0.4,0-0.4,0.3c0,0.3,0.3,0.2,0.4,0.2C44.2,75.5,45,75.5,45.8,75.5 M82,37.8L82,37.8c0.9,0,1.7,0,2.6,0
		c0.1,0,0.3,0,0.3-0.2c0-0.1-0.1-0.2-0.2-0.3c-0.1,0-0.3,0-0.4,0c-1.6,0-3.2,0-4.8,0c-0.2,0-0.5-0.1-0.5,0.2c0,0.3,0.3,0.3,0.5,0.3
		C80.4,37.8,81.2,37.8,82,37.8 M63.2,28.7L63.2,28.7c-0.9,0-1.8,0-2.6,0c-0.2,0-0.4,0-0.4,0.3c0,0.2,0.2,0.2,0.3,0.2
		c1.7,0,3.4,0,5.1,0c0.2,0,0.4,0,0.4-0.2c0-0.3-0.2-0.3-0.4-0.3C64.8,28.7,64,28.7,63.2,28.7 M59.9,38.8
		C59.9,38.8,59.9,38.8,59.9,38.8c0.9,0,1.8,0,2.6,0c0.2,0,0.4,0,0.4-0.2c0-0.2-0.2-0.2-0.4-0.3c-0.1,0-0.3,0-0.4,0
		c-1.2,0-2.4,0-3.6,0c-0.4,0-0.7,0-1.1,0c-0.2,0-0.4,0-0.4,0.3c0,0.3,0.3,0.2,0.4,0.2C58.3,38.8,59.1,38.8,59.9,38.8 M59.7,39.3
		C59.7,39.3,59.7,39.3,59.7,39.3c-0.9,0-1.8,0-2.7,0c-0.2,0-0.3,0-0.3,0.3c0,0.2,0.2,0.2,0.3,0.2c1.7,0,3.5,0,5.2,0
		c0.2,0,0.4,0,0.4-0.3c0-0.3-0.2-0.2-0.4-0.2C61.4,39.3,60.5,39.3,59.7,39.3 M28.7,89C28.7,89,28.7,89,28.7,89c0.5,0,1.1,0,1.6,0
		c0.2,0,0.3,0,0.5,0c0.2,0,0.4-0.1,0.4-0.3c0-0.2-0.2-0.2-0.4-0.2c-0.4,0-0.8,0-1.2,0c-1,0.1-2-0.1-3,0.1c-0.1,0-0.3,0-0.3,0.1
		c0,0.1,0.1,0.2,0.3,0.2c0.2,0,0.4,0.1,0.7,0.1C27.7,89,28.2,89,28.7,89 M82.4,38.8C82.4,38.8,82.4,38.8,82.4,38.8
		c0.8,0,1.7,0,2.5,0c0.2,0,0.5,0.1,0.5-0.2c0-0.2-0.2-0.3-0.5-0.3c-1.7,0-3.4,0-5.1,0c-0.2,0-0.5,0-0.4,0.3c0,0.2,0.3,0.2,0.4,0.2
		C80.7,38.8,81.6,38.8,82.4,38.8 M82.8,39.8C82.8,39.8,82.8,39.8,82.8,39.8c0.9,0,1.7,0,2.6,0c0.2,0,0.4,0.1,0.4-0.2
		c0-0.2-0.2-0.3-0.4-0.3c-0.2,0-0.4,0-0.6,0c-1.5,0-3,0-4.6,0c-0.2,0-0.5-0.1-0.5,0.2c0,0.3,0.3,0.3,0.5,0.3
		C81.1,39.8,81.9,39.8,82.8,39.8 M71.2,15.6c0.9,0,1.8,0,2.7,0c0.1,0,0.3,0.1,0.4-0.1c0-0.2-0.1-0.3-0.3-0.3c-0.2,0-0.3-0.1-0.5-0.1
		c-1.5,0-3,0-4.6,0c-0.2,0-0.3,0-0.5,0.1c-0.1,0-0.3,0.1-0.3,0.3c0,0.2,0.2,0.1,0.3,0.1C69.4,15.6,70.3,15.6,71.2,15.6 M83.4,41.7
		L83.4,41.7c0.9,0,1.7,0,2.6,0c0.2,0,0.4,0,0.4-0.2c0-0.3-0.2-0.3-0.4-0.3c-0.1,0-0.2,0-0.3,0c-1.6,0-3.3,0-4.9,0
		c-0.2,0-0.5-0.1-0.5,0.2c0,0.3,0.3,0.3,0.5,0.3C81.7,41.7,82.6,41.7,83.4,41.7 M85.2,110.1c-0.3-0.3-0.6-0.4-1-0.4
		c-1,0-2.1-0.1-3.1-0.1c-0.2,0-0.6,0-0.6,0.3c0,0.3,0.4,0.3,0.6,0.3c1.2,0,2.5,0,3.7,0C84.9,110.2,85.1,110.3,85.2,110.1 M84,43.6
		L84,43.6c0.9,0,1.7,0,2.6,0c0.2,0,0.5,0.1,0.5-0.2c0-0.2-0.3-0.3-0.5-0.3c-1.8,0-3.5,0-5.3,0c-0.2,0-0.4,0-0.4,0.2
		c0,0.3,0.2,0.2,0.4,0.2C82.3,43.6,83.1,43.6,84,43.6 M84.4,44.6C84.4,44.6,84.4,44.6,84.4,44.6c0.9,0,1.7,0,2.6,0
		c0.2,0,0.5,0.1,0.5-0.2c0-0.3-0.3-0.3-0.5-0.3c-1.7,0-3.5,0-5.2,0c-0.2,0-0.5-0.1-0.5,0.2c0,0.3,0.3,0.3,0.5,0.3
		C82.6,44.6,83.5,44.6,84.4,44.6 M84.8,45.5L84.8,45.5c0.9,0,1.8,0,2.7,0c0.1,0,0.3,0.1,0.4-0.1c0.1-0.3-0.2-0.2-0.3-0.3
		c-0.1,0-0.2-0.1-0.3-0.1c-1.7,0-3.5,0-5.2,0c-0.2,0-0.4,0-0.4,0.3c0,0.3,0.2,0.2,0.4,0.2C82.9,45.5,83.9,45.5,84.8,45.5 M85.7,48
		c-0.2,0-0.4,0-0.6,0c-0.7,0-1.5,0-2.2,0c-0.1,0-0.3,0-0.4,0.2c0,0.2,0.2,0.2,0.4,0.2c0.1,0,0.1,0,0.2,0c1.5,0.1,3,0,4.5,0.1
		c0.4,0,0.7,0,1.1,0c0.1,0,0.3,0,0.3-0.2c0-0.2-0.1-0.2-0.2-0.3c-0.2,0-0.3,0-0.5,0C87.4,48,86.6,48,85.7,48 M85.1,46.5
		c0.9,0,1.9,0,2.8,0c0.1,0,0.3,0,0.3-0.2c0-0.2-0.1-0.3-0.3-0.3c-0.1,0-0.1,0-0.2,0c-1.8,0-3.6,0-5.4,0c-0.2,0-0.4,0-0.4,0.2
		c0,0.3,0.3,0.3,0.5,0.3C83.3,46.5,84.2,46.5,85.1,46.5 M113.5,87.5c-0.9,0-1.7,0-2.6,0c-0.2,0-0.4-0.1-0.5,0.1
		c0,0.3,0.2,0.3,0.5,0.3c1.8,0,3.6,0,5.3,0c0.2,0,0.4,0,0.5-0.2c0-0.3-0.3-0.2-0.5-0.2C115.3,87.5,114.4,87.5,113.5,87.5 M58.4,20.3
		c0.2,0.2,0.4,0.1,0.6,0.1c1.8,0,3.6,0,5.4,0c0.2,0,0.4,0.2,0.5-0.1c0-0.2-0.2-0.3-0.4-0.4c-0.1,0-0.2,0-0.3,0c-1.7,0-3.3,0-5,0
		C58.9,20,58.6,20,58.4,20.3 M88.5,110.1c0.1,0.2,0.2,0.1,0.3,0.1c1.6,0,3.3,0,4.9,0c0.1,0,0.2,0,0.3,0c0.1,0,0.3-0.1,0.3-0.3
		c0-0.2-0.2-0.1-0.3-0.1c-1.3-0.1-2.6,0-3.9,0C89.6,109.7,89,109.6,88.5,110.1 M56.9,47.5C56.9,47.5,56.9,47.5,56.9,47.5
		c0.9,0,1.9,0,2.8,0c0.2,0,0.4,0,0.4-0.2c0-0.2-0.3-0.2-0.4-0.2c-1.8,0-3.7,0-5.5,0c-0.2,0-0.4,0.1-0.4,0.3c0,0.2,0.2,0.2,0.4,0.2
		C55.1,47.5,56,47.5,56.9,47.5 M85.4,47L85.4,47c-0.9,0-1.8,0-2.7,0c-0.2,0-0.5-0.1-0.5,0.2c0,0.3,0.3,0.2,0.5,0.2
		c1.4,0,2.7,0,4.1,0c0.5,0,1,0,1.5,0c0.1,0,0.3,0,0.3-0.2c0-0.2-0.1-0.3-0.3-0.3c-0.1,0-0.2,0-0.3,0C87.2,47,86.3,47,85.4,47
		 M44.8,96.7C44.8,96.7,44.8,96.7,44.8,96.7c1,0,1.9,0,2.9,0c0.2,0,0.4,0,0.4-0.2c0-0.2-0.2-0.2-0.4-0.3c-0.1,0-0.1,0-0.2,0
		c-1.5,0-2.9,0-4.4,0c-0.4,0-0.8-0.1-1.2,0.1c-0.1,0.1-0.3,0.1-0.3,0.3c0,0.2,0.2,0.1,0.3,0.1C42.9,96.7,43.8,96.7,44.8,96.7
		 M82.2,104.4L82.2,104.4c0.7,0,1.5,0,2.2,0c0.1,0,0.3,0,0.3-0.2c0-0.2-0.1-0.2-0.3-0.3c-1-0.1-1.9-0.1-2.9-0.1c-0.5,0-1.1,0-1.6,0
		c-0.2,0-0.4,0-0.4,0.3c0,0.2,0.3,0.2,0.4,0.2C80.7,104.4,81.4,104.4,82.2,104.4 M57.4,46L57.4,46c-0.2,0-0.4,0-0.7,0
		c-0.7,0-1.4,0-2.1,0c-0.2,0-0.5,0.1-0.4,0.3c0,0.3,0.3,0.1,0.5,0.1c1.7,0.1,3.5-0.1,5.2,0.1c0.2,0,0.6,0.1,0.6-0.3
		c0-0.3-0.3-0.3-0.6-0.3C59.1,46,58.3,46,57.4,46 M98.2,94.7c1.3,0,2.5,0,3.8,0c0.2,0,0.5,0,0.5-0.3c0-0.2-0.3-0.2-0.4-0.2
		c-2.5,0-5,0-7.5,0c-0.2,0-0.5-0.1-0.5,0.2c0,0.3,0.3,0.2,0.5,0.2C95.8,94.7,97,94.7,98.2,94.7 M56.6,48.5L56.6,48.5
		c0.9,0,1.9,0,2.8,0c0.2,0,0.4,0,0.4-0.3c0-0.2-0.2-0.2-0.4-0.2c-0.3,0-0.7,0-1,0c-1.5,0-2.9,0-4.4,0c-0.2,0-0.5-0.1-0.5,0.2
		c0,0.3,0.3,0.2,0.5,0.2C54.8,48.5,55.7,48.5,56.6,48.5 M61.1,105.8c-0.9,0-1.4,0-2,0c-0.2,0-0.4,0-0.5,0.2c0,0.2,0.2,0.3,0.4,0.3
		c1.2,0.2,2.5,0.1,3.7,0.1c0.2,0,0.4-0.1,0.3-0.3c0-0.2-0.2-0.2-0.3-0.2C62.1,105.7,61.5,105.8,61.1,105.8 M56.3,49.4
		c0.9,0,1.8,0,2.7,0c0.2,0,0.5,0.1,0.5-0.2c0-0.3-0.3-0.2-0.5-0.2c-1.7,0-3.5,0-5.2,0c-0.1,0-0.3,0-0.4,0c-0.2,0-0.3,0.1-0.3,0.3
		c0,0.2,0.2,0.1,0.4,0.1C54.4,49.4,55.3,49.4,56.3,49.4 M90,112.6h-5.9C85,113.3,89.2,113.3,90,112.6 M86,48.9c-1,0-1.9,0-2.9,0
		c-0.1,0-0.3,0-0.3,0.1c0,0.2,0.1,0.3,0.3,0.3c0.1,0,0.3,0,0.4,0c0.8,0,1.5,0,2.3,0c1,0,2.1,0,3.1,0c0.2,0,0.4,0.1,0.4-0.1
		c0-0.2-0.2-0.3-0.4-0.3c-0.1,0-0.2,0-0.3,0C87.7,48.9,86.9,48.9,86,48.9 M86.5,50.4c0.9,0,1.8,0,2.7,0c0.2,0,0.4,0.1,0.5-0.2
		c0-0.2-0.2-0.3-0.4-0.3c-0.1,0-0.3,0-0.4,0c-1.7,0-3.4,0-5.1,0c-0.1,0-0.3,0-0.4,0c-0.1,0-0.2,0.1-0.2,0.2c0,0.1,0.1,0.2,0.2,0.2
		c0.2,0,0.3,0.1,0.5,0.1C84.7,50.4,85.6,50.4,86.5,50.4 M60.5,105.4c0.8,0,1.5,0,2.3,0c0.1,0,0.3,0,0.3-0.2c0-0.2-0.1-0.3-0.2-0.3
		c-0.1,0-0.3,0-0.4,0c-1.4,0-2.8,0-4.1,0c-0.2,0-0.5-0.1-0.5,0.2c0,0.3,0.3,0.3,0.5,0.3C59,105.4,59.7,105.4,60.5,105.4 M62,33.4
		C62,33.4,62,33.4,62,33.4c-0.8,0-1.6,0-2.3,0c-0.2,0-0.4,0-0.4,0.2c0,0.2,0.2,0.3,0.5,0.3c1.5,0,3,0,4.5,0c0.2,0,0.4,0,0.4-0.3
		c0-0.3-0.2-0.3-0.4-0.3C63.4,33.4,62.7,33.4,62,33.4 M97.3,96.2L97.3,96.2c-0.9,0-1.8,0-2.7,0c-0.2,0-0.5,0-0.5,0.3
		c0,0.3,0.3,0.3,0.5,0.3c0.2,0,0.5-0.1,0.7-0.1c1.6,0,3.2,0,4.8,0c0.2,0,0.4,0.2,0.4-0.1c0-0.2-0.2-0.3-0.4-0.3c-0.1,0-0.3,0-0.4,0
		C98.9,96.2,98.1,96.2,97.3,96.2 M55.1,53.3c0.7,0,1.8,0.1,2.8,0c0.2,0,0.4,0,0.4-0.2c0-0.3-0.3-0.3-0.5-0.3c-1,0.1-2,0-2.9,0.1
		c-0.9,0-1.9,0-2.8,0c-0.2,0-0.5,0-0.5,0.3c0,0.2,0.3,0.2,0.5,0.2C52.9,53.3,53.9,53.3,55.1,53.3 M55.2,52.3L55.2,52.3
		c1,0,1.9,0,2.9,0c0.2,0,0.5,0.1,0.5-0.2c0-0.3-0.3-0.3-0.5-0.3c-1.4,0-2.8,0-4.2,0c-0.5,0-1,0-1.6,0c-0.2,0-0.4,0.1-0.4,0.3
		c0,0.3,0.3,0.2,0.4,0.2C53.3,52.3,54.3,52.3,55.2,52.3 M46.1,105.8c-0.6,0-1.2,0-1.8,0c-0.2,0-0.5,0-0.5,0.3c0,0.3,0.2,0.2,0.4,0.3
		c1.3,0.1,2.6,0,3.8,0c0.2,0,0.4,0,0.4-0.2c0-0.3-0.3-0.3-0.5-0.3C47.3,105.8,46.7,105.8,46.1,105.8 M82.1,35.9L82.1,35.9
		c0.7,0,1.3,0,2,0c0.1,0,0.3,0,0.3-0.2c0-0.2-0.1-0.3-0.2-0.3c-0.2,0-0.3-0.1-0.5-0.1c-0.8,0-1.6,0-2.4,0c-0.4,0-0.9-0.1-1.3,0.2
		c-0.1,0.1-0.2,0.2-0.2,0.3c0,0.1,0.2,0.1,0.3,0.1C80.7,35.9,81.4,35.9,82.1,35.9 M87.1,51.8L87.1,51.8c-0.9,0-1.9,0-2.8,0
		c-0.2,0-0.6-0.1-0.6,0.2c0,0.4,0.4,0.2,0.6,0.2c1.9,0,3.8,0,5.7,0c0.2,0,0.4,0,0.4-0.2c0-0.3-0.2-0.3-0.4-0.3
		C89,51.8,88.1,51.8,87.1,51.8 M47.8,107.8C47.8,107.8,47.8,107.8,47.8,107.8c-0.7,0-1.4,0-2.1,0c-0.2,0-0.7-0.1-0.7,0.2
		c0,0.3,0.4,0.3,0.7,0.3c0,0,0.1,0,0.1,0c1.2,0.1,2.4-0.1,3.7,0c0.3,0,0.7,0,1,0c0.1,0,0.2,0,0.3-0.2c0-0.1-0.1-0.2-0.2-0.3
		c-0.1-0.1-0.3-0.1-0.4-0.1C49.4,107.8,48.6,107.8,47.8,107.8 M62.9,30.1c0.8,0,1.6,0,2.5,0c0.2,0,0.4-0.1,0.4-0.3
		c0-0.2-0.2-0.2-0.4-0.2c-0.4,0-0.9,0-1.3,0c-1.2,0-2.4-0.1-3.6,0.1c-0.2,0-0.5-0.1-0.5,0.2c0,0.3,0.3,0.2,0.5,0.2
		C61.3,30.1,62.1,30.1,62.9,30.1 M54.3,55.2C54.3,55.2,54.3,55.2,54.3,55.2c1,0,2,0,3.1,0c0.2,0,0.5,0,0.5-0.3
		c0-0.3-0.3-0.2-0.4-0.2c-2,0-4,0-6,0c-0.2,0-0.5,0-0.5,0.3c0,0.3,0.3,0.2,0.5,0.2C52.4,55.2,53.3,55.2,54.3,55.2 M87.4,53.3
		L87.4,53.3c1,0,2,0,3,0c0.2,0,0.4,0.1,0.4-0.2c0-0.2-0.2-0.3-0.4-0.3c-0.2,0-0.4,0-0.6,0c-1.8,0-3.5,0-5.3,0
		c-0.2,0-0.6-0.1-0.6,0.2c0,0.3,0.3,0.3,0.6,0.3C85.5,53.3,86.5,53.3,87.4,53.3 M62.2,32C62.2,32,62.2,32.1,62.2,32
		c0.4,0,0.9,0,1.3,0c0.4,0,0.8,0,1.2,0c0.2,0,0.5,0,0.5-0.3c0-0.3-0.3-0.2-0.5-0.2c-0.2,0-0.3,0-0.5,0c-1.4,0-2.8,0-4.2,0
		c-0.2,0-0.5,0-0.5,0.3c0,0.3,0.3,0.2,0.5,0.2C60.7,32,61.5,32,62.2,32 M61.4,35.9L61.4,35.9c0.6,0,1.3,0,1.9,0c0.3,0,0.6,0,0.6-0.3
		c0-0.4-0.4-0.3-0.6-0.3c-1.1,0-2.2,0-3.2,0c-0.2,0-0.4,0-0.6,0c-0.2,0-0.3,0.2-0.3,0.4c0,0.3,0.2,0.2,0.4,0.2
		C60.1,35.9,60.7,35.9,61.4,35.9 M47.3,107.3C47.3,107.3,47.3,107.3,47.3,107.3c0.8,0,1.6,0,2.4,0c0.2,0,0.5,0.1,0.5-0.2
		c0-0.3-0.3-0.2-0.5-0.3c-0.6,0-1.2-0.1-1.8-0.1c-1.1,0-2.2,0-3.4,0c-0.1,0-0.3,0-0.4,0.2c0,0.2,0.2,0.3,0.3,0.3c0.1,0,0.3,0,0.4,0
		C45.7,107.3,46.5,107.3,47.3,107.3 M61.9,33c0.8,0,1.6,0,2.3,0c0.2,0,0.6,0.1,0.6-0.3c0-0.4-0.3-0.3-0.6-0.3c-1.1,0-2.2,0-3.2,0
		c-0.5,0-1,0-1.6,0c-0.2,0-0.4,0-0.4,0.3c0,0.3,0.2,0.2,0.4,0.2C60.3,33,61.1,33,61.9,33 M89.1,59L89.1,59c1.1,0,2.2,0,3.3,0
		c0.2,0,0.4,0.1,0.4-0.1c0-0.2-0.2-0.3-0.4-0.3c-0.3,0-0.6-0.1-0.8-0.1c-1.9,0-3.9,0-5.8,0c-0.2,0-0.5-0.2-0.5,0.2
		c0,0.3,0.3,0.2,0.5,0.2C87,59,88.1,59,89.1,59 M53.7,57.1L53.7,57.1c0.2,0,0.4,0,0.6,0c0.9,0,1.8,0,2.7,0c0.1,0,0.3,0,0.4-0.2
		c0-0.2-0.2-0.2-0.3-0.3c-0.1,0-0.2,0-0.3,0c-2.1,0-4.2,0-6.2,0c-0.2,0-0.4,0.1-0.4,0.3c0,0.2,0.3,0.1,0.4,0.2
		C51.6,57.1,52.7,57.1,53.7,57.1 M44.9,101.5C44.9,101.5,44.9,101.5,44.9,101.5c0.4,0,0.8,0,1.2,0c0.7,0,1.3,0,2,0
		c0.2,0,0.4,0,0.4-0.2c0-0.2-0.2-0.2-0.3-0.2c-0.1,0-0.1,0-0.2,0c-2,0-3.9,0-5.9,0c-0.2,0-0.6-0.2-0.6,0.2c0,0.3,0.4,0.2,0.7,0.2
		C42.9,101.5,43.9,101.5,44.9,101.5 M88.6,57.1C88.6,57.1,88.6,57.1,88.6,57.1c1.1,0,2.2,0,3.3,0c0.1,0,0.3,0,0.3-0.1
		c0-0.2-0.1-0.3-0.3-0.3c-0.1,0-0.2,0-0.3,0c-2,0-4.1,0-6.1,0c-0.2,0-0.5,0-0.5,0.2c0,0.3,0.3,0.3,0.5,0.3
		C86.5,57.1,87.6,57.1,88.6,57.1 M88.9,57.6L88.9,57.6c-1,0-1.9,0-2.9,0c-0.3,0-0.7-0.2-0.7,0.3c0,0.3,0.4,0.2,0.7,0.2
		c1.9,0,3.8,0,5.7,0c0.2,0,0.5,0,0.7-0.1c0.1,0,0.2,0,0.2-0.2c0-0.1-0.1-0.2-0.2-0.2c-0.2,0-0.3,0-0.5,0
		C90.9,57.6,89.9,57.6,88.9,57.6 M74.7,26.9c0.2,0.1,0.4,0.3,0.7,0.3c2,0,4.1,0,6.1,0c0.2,0,0.5,0,0.5-0.3c0-0.3-0.3-0.2-0.5-0.2
		c-2.1,0-4.2,0-6.4,0C75,26.8,74.9,26.7,74.7,26.9 M60.2,37.8L60.2,37.8c0.8,0,1.7,0,2.5,0c0.2,0,0.5,0,0.5-0.3
		c0-0.3-0.3-0.3-0.5-0.3c-1.2,0-2.5,0-3.7,0c-0.4,0-0.9,0-1.3,0c-0.2,0-0.4,0-0.4,0.3c0,0.3,0.2,0.2,0.4,0.2
		C58.6,37.8,59.4,37.8,60.2,37.8 M54,56.2C54,56.2,54,56.2,54,56.2c1.1,0,2.1,0,3.2,0c0.2,0,0.4,0,0.4-0.2c0-0.3-0.2-0.3-0.4-0.3
		c-0.3,0-0.6,0.1-0.9,0.1c-1.8,0-3.5,0-5.3,0c-0.2,0-0.5,0-0.4,0.3c0,0.3,0.3,0.2,0.4,0.2C52,56.2,53,56.2,54,56.2 M88.4,56.2
		C88.4,56.2,88.4,56.2,88.4,56.2c1,0,2,0,3.1,0c0.2,0,0.4,0.1,0.5-0.2c0-0.2-0.2-0.3-0.4-0.4c-0.1,0-0.3-0.1-0.4,0
		c-1.9,0.2-3.8,0-5.7,0.1c-0.2,0-0.3,0-0.5,0c-0.1,0-0.2,0-0.3,0.2c0,0.2,0.1,0.2,0.2,0.3c0.1,0,0.3,0,0.4,0
		C86.4,56.2,87.4,56.2,88.4,56.2 M46.1,76.4L46.1,76.4c1.1,0,2.1,0,3.2,0c0.2,0,0.4,0.1,0.5-0.1c0-0.2-0.3-0.3-0.5-0.3
		c-0.4,0-0.9,0-1.3,0c-1.7,0-3.4,0-5.1,0c-0.2,0-0.5,0-0.4,0.3c0,0.3,0.3,0.2,0.4,0.2C43.9,76.4,45,76.4,46.1,76.4 M57.9,44.6
		L57.9,44.6c0.9,0,1.8,0,2.7,0c0.2,0,0.5,0,0.5-0.3c0-0.3-0.3-0.2-0.5-0.2c-1.1,0-2.1-0.1-3.2,0c-0.7,0.1-1.5,0-2.2,0.1
		c-0.2,0-0.4,0.1-0.4,0.3c0,0.2,0.2,0.2,0.4,0.2C56.2,44.6,57,44.6,57.9,44.6 M44.4,98.6C44.4,98.6,44.4,98.6,44.4,98.6
		c1.1,0,2.2,0,3.2,0c0.2,0,0.4,0.1,0.4-0.2c0-0.2-0.2-0.2-0.4-0.3c-0.2,0-0.4,0-0.6,0c-1.9,0-3.8,0-5.6,0c-0.2,0-0.7-0.1-0.7,0.3
		c0,0.3,0.4,0.2,0.6,0.2C42.4,98.6,43.4,98.6,44.4,98.6 M95,107.3C95,107.3,95,107.3,95,107.3c0.9,0,1.7,0,2.6,0
		c0.2,0,0.6,0,0.6-0.3c0-0.3-0.3-0.2-0.5-0.2c-0.7,0-1.4,0-2.1,0c-1-0.1-2.1,0.1-3.1,0c-0.2,0-0.5,0.1-0.5,0.3
		c0,0.3,0.3,0.2,0.4,0.2C93.3,107.3,94.2,107.3,95,107.3 M63.3,27.7L63.3,27.7c-0.9,0-1.8,0-2.7,0c-0.2,0-0.5,0-0.5,0.3
		c0,0.3,0.3,0.3,0.5,0.3c0.2,0,0.4-0.1,0.6,0c1.6,0.1,3.1-0.1,4.7,0.1c0.2,0,0.4,0,0.4-0.3c0-0.3-0.2-0.3-0.4-0.3
		C65.1,27.7,64.2,27.7,63.3,27.7 M97.4,101.5L97.4,101.5c1.1,0,2.2,0,3.3,0c0.2,0,0.4,0,0.4-0.2c0-0.3-0.3-0.2-0.5-0.2
		c-2.2,0-4.4,0-6.5,0c-0.2,0-0.4-0.1-0.4,0.2c0,0.2,0.2,0.2,0.4,0.2C95.2,101.5,96.3,101.5,97.4,101.5 M57.3,57.8
		c-0.2-0.1-0.3-0.2-0.6-0.2c-2.2,0-4.3,0-6.5,0c-0.2,0-0.5-0.1-0.5,0.3c0,0.3,0.3,0.2,0.5,0.2c2.2,0,4.3,0,6.5,0
		C56.9,58.1,57.2,58.1,57.3,57.8 M53.2,59L53.2,59c1.2,0,2.3,0,3.5,0c0.1,0,0.3,0,0.4-0.2c0-0.2-0.2-0.3-0.3-0.3c-0.1,0-0.3,0-0.4,0
		c-1.9,0-3.8,0-5.7,0c-0.2,0-0.4,0-0.7,0c-0.2,0-0.4,0.1-0.4,0.3c0,0.2,0.3,0.2,0.4,0.2C51,59,52.1,59,53.2,59 M44.7,99.6
		c0.8,0,1.5,0,2.3,0c0.3,0,0.7,0,1,0c0.1,0,0.2,0,0.2-0.2c0-0.2-0.1-0.2-0.2-0.2c-0.1,0-0.2,0-0.3,0c-1.6,0-3.1,0-4.7,0
		c-0.6,0-1.2,0-1.9,0c-0.1,0-0.3,0-0.3,0.2c0,0.2,0.1,0.2,0.2,0.3c0.1,0.1,0.2,0.2,0.4,0.1C42.4,99.4,43.6,99.6,44.7,99.6
		 M97.8,98.6L97.8,98.6c1.1,0,2.2,0,3.3,0c0.2,0,0.5,0.1,0.5-0.2c0-0.3-0.3-0.3-0.5-0.3c-2.2,0-4.4,0-6.6,0c-0.2,0-0.5,0-0.5,0.3
		c0,0.3,0.3,0.2,0.4,0.2C95.6,98.6,96.7,98.6,97.8,98.6 M97.8,99.1L97.8,99.1c-1.1,0-2.3,0-3.4,0c-0.2,0-0.4,0-0.5,0.2
		c0,0.3,0.3,0.2,0.5,0.2c0.5,0,0.9,0,1.4,0c1.7,0,3.5,0,5.2,0c0.3,0,0.6,0,0.6-0.3c0-0.3-0.4-0.2-0.6-0.2
		C100,99.1,98.9,99.1,97.8,99.1 M57.6,45.5L57.6,45.5c0.7,0,1.4,0,2.2,0c0.2,0,0.5,0,0.7,0c0.2,0,0.3-0.1,0.3-0.3
		c0-0.2-0.2-0.2-0.3-0.2c-0.1,0-0.2,0-0.3,0c-1.6,0-3.2,0-4.7,0c-0.2,0-0.4,0-0.6,0c-0.1,0-0.4,0-0.4,0.3c0,0.3,0.2,0.2,0.4,0.2
		C55.8,45.6,56.7,45.5,57.6,45.5 M52.8,60c1.1,0,2.2,0,3.3,0c0.2,0,0.4,0,0.6-0.1c0.1,0,0.2-0.1,0.2-0.2c0-0.1-0.1-0.2-0.2-0.2
		c-0.1,0-0.3,0-0.4,0c-1.5,0-3,0-4.5,0c-0.8,0-1.5,0-2.3,0c-0.3,0-0.6,0.1-0.6,0.3c0,0.3,0.3,0.2,0.5,0.2C50.6,60,51.7,60,52.8,60
		 M45.6,94.7C45.6,94.7,45.6,94.7,45.6,94.7c0.7,0,1.3,0.1,2,0c0.2,0,0.4,0,0.4-0.3c0-0.2-0.2-0.2-0.4-0.2c-0.6,0-1.2,0-1.8,0
		c-1.7,0-3.4,0-5.1,0c-0.3,0-0.6,0-0.8,0c-0.1,0-0.2,0.1-0.2,0.2c0,0.1,0.1,0.2,0.2,0.2c0.1,0,0.3,0,0.4,0
		C42.2,94.7,43.9,94.7,45.6,94.7 M94.7,74.5C94.7,74.5,94.7,74.5,94.7,74.5c0.3,0,0.6,0,1,0c1,0,2,0,3,0c0.1,0,0.3,0,0.3-0.1
		c0-0.2-0.2-0.2-0.3-0.3c-0.1,0-0.2,0-0.3,0c-0.9-0.1-1.9,0-2.8,0c-1.6-0.1-3.1,0-4.7,0c-0.2,0-0.5,0-0.5,0.2c0,0.3,0.3,0.2,0.5,0.2
		C92.2,74.5,93.5,74.5,94.7,74.5 M47.6,102.5c0.3,0,0.4,0,0.6,0c0.2,0,0.3,0,0.3-0.2c0-0.2-0.1-0.3-0.3-0.3c-0.1,0-0.3,0-0.4,0
		c-0.7,0-1.4,0.1-2.1,0.1c-1.1-0.1-2.2,0-3.2,0c-0.2,0-0.4-0.1-0.5,0.2c0,0.3,0.2,0.4,0.5,0.3c0.8,0,1.7,0.1,2.5-0.1
		c0.2,0,0.4-0.1,0.6,0.1c0.1,0.1,0.2,0.1,0.3,0C46.5,102.3,47.1,102.6,47.6,102.5 M62.7,31.1c0.8,0,1.6,0.1,2.4-0.1
		c0.2,0,0.5,0,0.4-0.3c0-0.3-0.3-0.2-0.5-0.2c-1.1,0-2.2,0-3.2,0c-0.6,0-1.2-0.1-1.8,0.1c-0.1,0-0.3,0.1-0.3,0.3
		c0,0.2,0.2,0.1,0.3,0.2C60.9,31.2,61.8,31.1,62.7,31.1 M98.7,73.4c-0.2-0.3-0.4-0.3-0.7-0.3c-2.6,0-5.1,0-7.7,0
		c-0.2,0-0.3,0-0.3,0.2c0,0.2,0.2,0.2,0.3,0.2c0.3,0.1,0.7,0,1,0c2.2,0.1,4.5,0,6.8,0C98.3,73.5,98.5,73.6,98.7,73.4 M86.9,51.4
		L86.9,51.4c1,0,1.9,0,2.9,0c0.1,0,0.3,0,0.3-0.1c0-0.1-0.1-0.2-0.2-0.3c-0.1-0.1-0.3-0.1-0.4-0.1c-1.9,0-3.7,0-5.6,0
		c-0.2,0-0.5-0.1-0.5,0.2c0,0.3,0.3,0.3,0.6,0.3c0.1,0,0.2,0,0.3,0C85.1,51.4,86,51.4,86.9,51.4 M95.9,77.4L95.9,77.4
		c1.4,0,2.7,0,4.1,0c0.2,0,0.5,0.1,0.5-0.2c0-0.3-0.3-0.2-0.5-0.3c-0.5,0-1-0.1-1.6-0.1c-2.2,0-4.4,0-6.6,0.1
		c-0.2,0-0.4-0.1-0.5,0.2c0,0.3,0.3,0.2,0.5,0.2C93.1,77.4,94.5,77.4,95.9,77.4 M54.9,53.8C54.9,53.8,54.9,53.7,54.9,53.8
		c-0.1,0-0.3,0-0.4,0c-1,0-2-0.1-3,0.1c-0.1,0-0.3,0-0.3,0.2c0,0.2,0.2,0.2,0.3,0.2c2.1,0,4.1,0,6.2,0c0.2,0,0.4,0,0.4-0.3
		c0-0.3-0.2-0.2-0.4-0.2C56.7,53.8,55.8,53.8,54.9,53.8 M43.9,92.8L43.9,92.8c1.3,0,2.6,0,3.9,0c0.2,0,0.4,0,0.4-0.2
		c0-0.2-0.2-0.3-0.4-0.3c-0.3,0-0.5,0-0.8,0c-2.3,0-4.6,0-6.8,0c-0.2,0-0.6,0-0.6,0.2c0,0.4,0.4,0.2,0.6,0.2
		C41.4,92.8,42.7,92.8,43.9,92.8 M56,50.4L56,50.4c0.9,0,1.9,0,2.8,0c0.2,0,0.5,0.2,0.5-0.2c0-0.3-0.2-0.3-0.5-0.4
		c-1.1-0.1-2.1,0-3.2,0c-0.9,0-1.8-0.1-2.7,0.1c-0.2,0-0.4,0-0.4,0.3c0,0.3,0.3,0.2,0.5,0.2C54,50.4,55,50.4,56,50.4 M41.8,95.2
		L41.8,95.2c-0.4,0-0.7,0-1.1,0c-0.2,0-0.4,0-0.4,0.3c0,0.2,0.3,0.2,0.4,0.2c0.9,0.2,1.8-0.2,2.8,0c1,0.2,2.1,0,3.2,0
		c0.3,0,0.7,0,1,0c0.2,0,0.3-0.1,0.3-0.3c0-0.2-0.2-0.2-0.3-0.2c-0.1,0-0.2,0-0.3,0C45.6,95.2,43.7,95.2,41.8,95.2 M43.8,93.8
		c1.3,0,2.6,0,3.9,0c0.2,0,0.4,0,0.4-0.2c0-0.3-0.3-0.3-0.5-0.3c-2.5,0-5.1,0-7.6,0c-0.2,0-0.5-0.1-0.5,0.2c0,0.3,0.3,0.2,0.5,0.2
		C41.4,93.8,42.6,93.8,43.8,93.8 M93.2,70.6L93.2,70.6c1.2,0,2.3,0,3.5,0c0.3,0,0.8,0.2,0.8-0.2c0-0.5-0.5-0.3-0.8-0.3
		c-2.4,0-4.7,0-7.1,0c-0.1,0-0.3,0-0.4,0c-0.1,0-0.2,0-0.2,0.2c0,0.1,0.1,0.2,0.2,0.3c0.2,0,0.3,0,0.5,0
		C90.8,70.6,92,70.6,93.2,70.6 M95.1,75.5L95.1,75.5c0.4,0,0.7,0,1.1,0c1,0,1.9,0,2.9,0c0.1,0,0.3,0,0.3-0.1c0-0.2-0.1-0.3-0.3-0.3
		c-0.1,0-0.2,0-0.3,0c-2.6,0-5.2,0-7.8,0c-0.2,0-0.5-0.1-0.5,0.2c0,0.3,0.3,0.3,0.5,0.3C92.5,75.5,93.8,75.5,95.1,75.5 M80.7,21.4
		L80.7,21.4c1.3,0,2.6,0,3.9,0c0.2,0,0.5,0.1,0.5-0.2c0-0.3-0.3-0.3-0.5-0.3c-0.1,0-0.1,0-0.2,0c-2.3,0-4.7,0-7,0
		c-0.3,0-0.5,0-0.8,0.1c-0.2,0-0.4,0.1-0.4,0.3c0,0.2,0.3,0.1,0.4,0.1C78,21.4,79.3,21.4,80.7,21.4 M71.1,17.6L71.1,17.6
		c1.3,0,2.6,0,3.8,0c0.2,0,0.6,0.2,0.6-0.2c0-0.3-0.4-0.2-0.6-0.3c-0.1,0-0.1,0-0.2,0c-2.3,0-4.6,0-6.9,0c-0.3,0-0.5,0-0.8,0
		c-0.2,0-0.5,0-0.4,0.3c0,0.2,0.3,0.2,0.5,0.2C68.5,17.6,69.8,17.6,71.1,17.6 M71.2,16.6L71.2,16.6c1.2,0,2.4,0,3.6,0
		c0.1,0,0.3,0.1,0.4-0.1c0-0.2-0.1-0.3-0.3-0.3c-0.3-0.1-0.5-0.1-0.8-0.1c-1.8,0-3.5,0.2-5.3,0c-0.4,0-0.7,0-1.1,0.1
		c-0.2,0-0.4,0.1-0.4,0.3c0,0.2,0.3,0.1,0.4,0.1C68.8,16.6,70,16.6,71.2,16.6 M98.3,92.8L98.3,92.8c0.8,0,1.6,0,2.5,0
		c0.6,0,1.2,0,1.7,0c0.1,0,0.3,0,0.3-0.2c0-0.2-0.1-0.2-0.3-0.2c-0.1,0-0.3,0-0.4,0c-1.5,0-2.9,0-4.4,0c-1.1,0-2.2,0-3.3,0
		c-0.2,0-0.5,0-0.5,0.3c0,0.3,0.3,0.2,0.5,0.2C95.7,92.8,97,92.8,98.3,92.8 M44.4,91.8c1.1,0,2.2,0,3.3,0c0.2,0,0.5,0,0.5-0.3
		c0-0.2-0.3-0.2-0.5-0.2c-2,0-4,0-6,0c-0.6,0-1.1-0.1-1.7,0c-0.2,0-0.4,0-0.4,0.2c0,0.3,0.2,0.2,0.4,0.2c0.2,0.1,0.4,0.1,0.7,0.1
		C41.9,91.7,43.2,91.9,44.4,91.8 M93.5,71.6L93.5,71.6c1.3,0,2.5,0,3.8,0c0.2,0,0.4,0.1,0.4-0.2c0-0.2-0.2-0.3-0.4-0.3
		c-0.1,0-0.3-0.1-0.4,0c-0.5,0.1-1,0.1-1.6,0.1c-1.9,0-3.8,0-5.6-0.1c-0.2,0-0.5,0-0.5,0.3c0,0.3,0.3,0.2,0.5,0.2
		C91,71.6,92.3,71.6,93.5,71.6 M34.4,89.9C34.4,89.9,34.4,89.9,34.4,89.9c0.9,0,1.7,0,2.6,0c0.3,0,0.5,0,0.8-0.1
		c0.1-0.1,0.3-0.1,0.3-0.2c0-0.2-0.2-0.2-0.4-0.2c-0.6,0-1.2,0-1.8-0.1c-0.9-0.1-1.8,0.1-2.7,0c-0.5,0-1,0-1.5,0.1
		c-0.2,0-0.3,0.1-0.3,0.3c0,0.2,0.2,0.1,0.4,0.1C32.6,89.9,33.5,89.9,34.4,89.9 M71.2,21.4C71.2,21.4,71.2,21.4,71.2,21.4
		c1.4,0,2.7,0,4.1,0c0.2,0,0.4,0,0.4-0.2c0-0.3-0.2-0.2-0.4-0.2c-2.7,0-5.4,0-8.1,0c-0.2,0-0.5-0.1-0.5,0.2c0,0.3,0.3,0.2,0.5,0.2
		C68.5,21.4,69.8,21.4,71.2,21.4 M91.7,67.2C91.7,67.2,91.7,67.3,91.7,67.2c-1.3,0-2.7,0-4,0c-0.2,0-0.4-0.1-0.4,0.2
		c0,0.2,0.2,0.2,0.4,0.3c0.1,0,0.2,0,0.3,0c1.4,0,2.8,0,4.2,0c1.3,0,2.5,0,3.8,0c0.1,0,0.3,0,0.3-0.2c0-0.2-0.1-0.3-0.3-0.3
		c-0.2,0-0.3,0-0.5,0C94.2,67.2,93,67.2,91.7,67.2 M59.3,40.1C59.3,40.1,59.3,40.1,59.3,40.1c-0.9,0-1.7,0-2.6,0
		c-0.3,0-0.4,0.2-0.4,0.4c-0.1,0.2,0.1,0.3,0.3,0.3c1.8,0,3.5,0,5.3,0c0.2,0,0.5-0.1,0.5-0.4c0-0.3-0.3-0.2-0.5-0.2
		C61,40.1,60.2,40.1,59.3,40.1 M97.7,97.1L97.7,97.1c-1.1,0-2.2,0-3.2,0c-0.2,0-0.4-0.1-0.4,0.2c0,0.3,0.2,0.3,0.4,0.3
		c0.5,0,0.9,0,1.4,0c1.7,0,3.5,0,5.2,0c0.1,0,0.3,0,0.3-0.2c0-0.2-0.1-0.3-0.2-0.3c-0.1,0-0.3,0-0.4,0
		C99.7,97.1,98.7,97.1,97.7,97.1 M77.8,25.8C77.8,25.7,77.8,25.7,77.8,25.8c-1.4,0-2.7,0-4.1,0c-0.2,0-0.5-0.1-0.6,0.2
		c0,0.3,0.3,0.3,0.6,0.3c0.2,0,0.3,0,0.5,0c1,0,2,0,3,0c1.5,0,3,0,4.5,0c0.3,0,0.8,0.1,0.8-0.3c0-0.4-0.5-0.2-0.7-0.2
		C80.4,25.7,79.1,25.8,77.8,25.8 M58.3,43.7L58.3,43.7c0.9,0,1.8,0,2.7,0c0.2,0,0.5-0.1,0.5-0.3c0-0.3-0.2-0.3-0.5-0.3
		c-1.8,0-3.5-0.1-5.3,0.1c-0.2,0-0.6-0.1-0.5,0.3c0,0.3,0.4,0.2,0.6,0.2C56.6,43.7,57.4,43.7,58.3,43.7 M55.2,111.6
		C55.2,111.6,55.2,111.6,55.2,111.6c-1.4,0-2.7,0-4.1,0c-0.2,0-0.5-0.1-0.6,0.2c0,0.3,0.3,0.2,0.5,0.3c0.1,0,0.2,0,0.3,0
		c1.1,0,2.2,0,3.3,0c1.5,0,3.1,0,4.6,0c0.2,0,0.5,0,0.5-0.3c0-0.3-0.3-0.2-0.5-0.2C57.9,111.6,56.6,111.6,55.2,111.6 M96.4,78.4
		L96.4,78.4c1.5,0,2.9,0,4.4,0c0.1,0,0.3,0.1,0.3-0.1c0-0.2-0.1-0.4-0.3-0.3c-0.4,0.1-0.7,0-1.1,0c-2.3,0-4.7,0-7,0
		c-0.3,0-0.5,0-0.8,0c-0.1,0-0.3,0-0.3,0.2c0,0.2,0.1,0.2,0.3,0.2c0.1,0,0.3,0,0.4,0C93.6,78.4,95,78.4,96.4,78.4 M64.1,26.7
		L64.1,26.7c-1.1,0-2.1,0-3.2,0c-0.3,0-0.7-0.1-0.7,0.3c0,0.4,0.5,0.3,0.7,0.3c1.9,0,3.7,0,5.6,0c0.3,0,0.6,0.1,0.8-0.1
		c0.2-0.1,0.5,0,0.4-0.3c0-0.3-0.3-0.2-0.5-0.2C66.2,26.7,65.1,26.7,64.1,26.7 M64.7,25.8C64.7,25.8,64.7,25.8,64.7,25.8
		c-1.5,0-2.9,0-4.4,0c-0.2,0-0.6-0.1-0.6,0.2c0,0.3,0.4,0.2,0.7,0.2c2.7,0,5.3,0,8,0c0.2,0,0.3,0,0.5-0.1c0.2,0,0.4-0.1,0.4-0.3
		c0-0.2-0.3-0.2-0.4-0.2C67.5,25.7,66.1,25.8,64.7,25.8 M44.5,100.6L44.5,100.6c1.1,0,2.2,0,3.3,0c0.2,0,0.4,0,0.4-0.2
		c0-0.2-0.2-0.3-0.4-0.3c-0.1,0-0.1,0-0.2,0c-2.1,0-4.3,0-6.4,0c-0.1,0-0.2,0-0.3,0c-0.1,0-0.2,0.1-0.2,0.2c0,0.1,0.1,0.3,0.2,0.3
		c0.1,0,0.2,0,0.3,0C42.4,100.6,43.5,100.6,44.5,100.6 M97.7,90C97.7,90,97.7,89.9,97.7,90c1.2,0,2.3,0,3.5,0c0.2,0,0.6,0.1,0.6-0.2
		c0-0.3-0.4-0.3-0.6-0.3c-0.5,0-0.9,0.1-1.4,0.1c-1.8,0-3.7-0.1-5.5,0c-0.3,0-0.7-0.1-0.7,0.3c0,0.4,0.4,0.2,0.7,0.2
		C95.5,90,96.6,90,97.7,90 M45.9,78.3L45.9,78.3c1.2,0,2.3,0,3.5,0c0.4,0,0.7,0,1.1,0c0.1,0,0.3-0.1,0.3-0.2c0-0.2-0.1-0.2-0.3-0.2
		c-0.1,0-0.2,0-0.3,0c-2,0-4.1,0-6.1,0c-0.8,0-1.5,0-2.3,0c-0.3,0-0.6,0-0.6,0.3c0,0.3,0.3,0.1,0.5,0.1
		C43.1,78.4,44.5,78.3,45.9,78.3 M97.7,100.5L97.7,100.5c1,0,2.1,0,3.1,0c0.1,0,0.3,0,0.4,0c0.1,0,0.3-0.1,0.3-0.3
		c0-0.2-0.2-0.2-0.3-0.2c-0.1,0-0.3,0-0.4,0c-2.1,0-4.2,0-6.3,0c-0.1,0-0.3,0-0.4,0c-0.1,0-0.3,0-0.3,0.2c0,0.1,0.1,0.2,0.2,0.3
		c0.1,0,0.3,0,0.4,0C95.6,100.5,96.6,100.5,97.7,100.5 M71.2,19.5c1.5,0,3.1,0,4.6,0c0.2,0,0.4,0,0.4-0.2c0-0.3-0.2-0.3-0.4-0.3
		c-0.8,0-1.5-0.1-2.3-0.1c-2.2,0-4.3,0-6.5,0c-0.2,0-0.3,0-0.5,0c-0.2,0.1-0.5,0-0.5,0.3c0,0.3,0.4,0.2,0.6,0.2
		C68.2,19.5,69.7,19.5,71.2,19.5 M66.3,21.4c-0.3-0.4-0.6-0.5-1-0.5c-1.3,0-2.6,0-3.9,0c-1.3-0.1-2.5,0.1-3.8,0
		c-0.2,0-0.5,0.1-0.4,0.3c0,0.3,0.3,0.2,0.5,0.2c2.3,0,4.5,0,6.8,0C64.9,21.4,65.5,21.4,66.3,21.4 M87.2,112.1
		C87.2,112.1,87.2,112.1,87.2,112.1c1.4,0,2.7,0,4.1,0c0.2,0,0.5,0,0.5-0.3c0-0.2-0.3-0.1-0.5-0.2c-0.1,0-0.2-0.1-0.3-0.1
		c-1.8,0.2-3.7,0-5.5,0.1c-0.8,0.1-1.6-0.2-2.4,0c-0.2,0-0.5-0.1-0.5,0.1c0,0.3,0.3,0.3,0.6,0.3c0.2,0,0.4,0,0.6,0
		C84.8,112.1,86,112.1,87.2,112.1 M55.6,51.4L55.6,51.4c1,0,1.9,0,2.9,0c0.2,0,0.4,0,0.5-0.3c0-0.3-0.2-0.3-0.4-0.3
		c-1.9,0-3.9-0.1-5.8,0.1c-0.2,0-0.5,0-0.5,0.3c0,0.3,0.3,0.2,0.5,0.2C53.7,51.4,54.6,51.4,55.6,51.4 M80.7,20.5L80.7,20.5
		c1,0,2,0,3,0c0.1,0,0.3,0,0.4-0.1c0-0.1-0.1-0.2-0.2-0.3c-0.4-0.2-0.7-0.3-1.2-0.3c-1.2,0-2.5,0.1-3.7,0c-0.5,0-0.9,0.1-1.3,0.2
		c-0.1,0.1-0.3,0.1-0.3,0.3c0,0.2,0.2,0.1,0.4,0.1C78.7,20.5,79.7,20.5,80.7,20.5 M96.5,95.2L96.5,95.2c-0.7,0-1.4,0-2.1,0
		c-0.2,0-0.5,0-0.5,0.3c0,0.3,0.3,0.2,0.5,0.2c1.2,0,2.5,0,3.7,0c0.5,0,1-0.2,1.4-0.1c0.7,0.1,1.4,0.1,2,0.1c0.2,0,0.5,0,0.5-0.3
		c0-0.3-0.3-0.2-0.5-0.2C99.8,95.2,98.2,95.2,96.5,95.2 M71.2,18.5L71.2,18.5c1.5,0,3,0,4.5,0c0.2,0,0.5,0.1,0.5-0.2
		c0-0.3-0.3-0.4-0.5-0.4C75.3,18,75,18,74.7,18c-2.5,0-5,0-7.5,0c-0.2,0-0.4,0-0.6,0.1c-0.2,0-0.5,0-0.4,0.3c0,0.2,0.3,0.2,0.5,0.2
		C68.2,18.5,69.7,18.5,71.2,18.5 M97.3,80.3L97.3,80.3c1.6,0,3.2,0,4.8,0c0.1,0,0.3,0,0.4-0.2c0-0.2-0.1-0.2-0.3-0.3
		c-0.1,0-0.1,0-0.2,0c-3.1,0-6.3,0-9.4,0c-0.2,0-0.5-0.1-0.5,0.3c0,0.3,0.3,0.2,0.5,0.2C94.1,80.3,95.7,80.3,97.3,80.3 M45,80.3
		L45,80.3c1.6,0,3.2,0,4.9,0c0.2,0,0.4,0,0.4-0.2c0-0.3-0.3-0.2-0.5-0.3c-0.1,0-0.1,0-0.2,0c-2.5,0-4.9,0-7.4,0c-0.7,0-1.3,0-2,0
		c-0.2,0-0.4,0.1-0.4,0.4c0,0.2,0.3,0.1,0.4,0.1C41.8,80.3,43.4,80.3,45,80.3 M95.5,76.5C95.5,76.5,95.5,76.4,95.5,76.5
		c1.3-0.1,2.7-0.1,4-0.1c0.1,0,0.4,0.1,0.4-0.2c0-0.2-0.2-0.3-0.4-0.3c-0.6,0-1.3-0.1-1.9-0.1c-2.1,0-4.2,0-6.3,0.1
		c-0.2,0-0.4-0.1-0.4,0.2c0,0.1,0.1,0.3,0.4,0.3c0.1,0,0.2,0,0.3,0C92.9,76.5,94.2,76.5,95.5,76.5 M92.8,69.1L92.8,69.1
		c-1.2,0-2.4,0-3.6,0c-0.2,0-0.7-0.2-0.7,0.2c0,0.5,0.5,0.3,0.7,0.3c2.1,0,4.1,0,6.2,0c0.4,0,0.9,0,1.3,0c0.1,0,0.3,0,0.3-0.2
		c0-0.2-0.1-0.3-0.2-0.3c-0.2,0-0.3,0-0.5,0C95.1,69.1,93.9,69.1,92.8,69.1 M98.3,91.9L98.3,91.9c0.9,0,1.8,0,2.7,0c0.5,0,1,0,1.5,0
		c0.2,0,0.3-0.1,0.3-0.2c0-0.2-0.1-0.2-0.3-0.2c-0.1,0-0.2,0-0.3,0c-2.6,0-5.2,0-7.9,0c-0.2,0-0.5,0-0.5,0.3c0,0.3,0.3,0.3,0.5,0.3
		C95.6,91.9,97,91.9,98.3,91.9 M96.9,79.3C96.9,79.3,96.9,79.3,96.9,79.3c1.5,0,2.9,0,4.4,0c0.2,0,0.4,0.1,0.4-0.1
		c0-0.3-0.2-0.3-0.4-0.3c-0.9-0.1-1.8,0-2.7,0c-2,0-4,0-6,0c-0.3,0-0.8-0.1-0.8,0.3c0,0.3,0.5,0.2,0.8,0.2
		C94,79.3,95.5,79.3,96.9,79.3 M61.7,23.4L61.7,23.4c1.3,0,2.6,0,4,0c0.5,0,1,0,1.5,0c0.1,0,0.2,0,0.3-0.1c0-0.2-0.1-0.3-0.2-0.3
		c-0.1,0-0.2,0-0.3,0c-3.5,0-7,0-10.5,0c-0.2,0-0.5,0-0.5,0.3c0,0.3,0.3,0.2,0.5,0.2C58.2,23.4,59.9,23.4,61.7,23.4 M55.1,111.1
		L55.1,111.1c0.4,0,0.8,0,1.2,0c1.4,0,2.8,0,4.2,0c0.2,0,0.5,0,0.5-0.3c0-0.3-0.3-0.2-0.5-0.2c-0.5,0-1,0-1.5,0c-3.1,0-6.2,0-9.3,0
		c-0.2,0-0.5,0-0.5,0.2c0,0.3,0.3,0.2,0.5,0.2c0.1,0,0.1,0,0.2,0C51.7,111.1,53.4,111.1,55.1,111.1 M80.4,23.3L80.4,23.3
		c0.4,0,0.7,0,1.1,0c1.5,0,3,0,4.5,0c0.2,0,0.4,0.1,0.4-0.2c0-0.2-0.2-0.3-0.4-0.3c-0.1,0-0.1,0-0.2,0c-3.5,0-7,0-10.5,0
		c-0.1,0-0.3,0-0.4,0c-0.2,0-0.4,0.1-0.4,0.3c0,0.2,0.3,0.1,0.4,0.1C76.8,23.4,78.6,23.3,80.4,23.3 M44.4,89.9c1.2,0,2.3,0,3.5,0
		c0.2,0,0.6,0.1,0.6-0.3c0-0.4-0.3-0.3-0.6-0.3c0,0-0.1,0-0.1,0c-2.2,0-4.4,0-6.6,0c-0.1,0-0.3,0-0.4,0c-0.2,0.1-0.4,0.1-0.4,0.3
		c0,0.3,0.3,0.2,0.5,0.2C42,89.9,43.2,89.9,44.4,89.9 M44.3,90.9C44.3,90.9,44.3,90.9,44.3,90.9c0.2,0,0.4,0,0.7,0c1,0,2,0,3,0
		c0.2,0,0.5,0,0.5-0.3c0-0.2-0.2-0.4-0.5-0.3c-0.1,0-0.1,0-0.2,0c-1.4,0-2.8,0-4.2,0c-1.1,0-2.2-0.1-3.2,0c-0.2,0-0.4,0-0.4,0.3
		c0,0.2,0.2,0.2,0.4,0.2C41.6,90.9,43,90.9,44.3,90.9 M45.5,79.3L45.5,79.3c1.5,0,3,0,4.5,0c0.2,0,0.5,0,0.5-0.3
		c0-0.3-0.3-0.2-0.5-0.2c-2.9,0-5.7,0-8.6,0c-0.1,0-0.3,0-0.4,0c-0.2,0.1-0.5,0-0.5,0.3c0,0.3,0.3,0.2,0.5,0.2
		C42.5,79.3,44,79.3,45.5,79.3 M43.1,83.2c1.9,0,3.8,0,5.7,0c0.1,0,0.3,0,0.4,0c0.1,0,0.2-0.1,0.3-0.2c0-0.2-0.1-0.1-0.2-0.2
		c-0.2-0.1-0.4-0.1-0.7-0.1c-2,0-4.1,0-6.1,0c-1.7,0-3.4,0-5,0c-0.3,0-0.6,0-0.6,0.3c0,0.3,0.4,0.2,0.5,0.2
		C39.4,83.2,41.2,83.2,43.1,83.2 M99.2,83.2L99.2,83.2c1.2,0,2.4,0,3.6,0c0.8,0,1.6,0,2.3,0c0.1,0,0.3,0.1,0.3-0.1
		c0-0.2-0.1-0.2-0.3-0.3c-0.2-0.1-0.5-0.1-0.7-0.1c-3.7,0-7.3,0-11,0c-0.3,0-0.8-0.2-0.8,0.2c0,0.4,0.5,0.3,0.9,0.3
		C95.5,83.2,97.3,83.2,99.2,83.2 M61.6,22.4L61.6,22.4c1.6,0,3.2,0,4.8,0c0.2,0,0.5,0.2,0.5-0.2c0-0.3-0.3-0.3-0.5-0.3
		c-0.5,0-1.1,0-1.6,0c-2.1,0-4.3,0-6.4,0c-0.5,0-1,0-1.6,0c-0.2,0-0.5,0.1-0.5,0.4c0,0.3,0.3,0.2,0.5,0.2
		C58.4,22.4,60,22.4,61.6,22.4 M75.3,22.5c0.3,0,0.5-0.1,0.7-0.1c3.2,0,6.3,0,9.5,0c0.2,0,0.5,0.1,0.5-0.2c0-0.3-0.3-0.3-0.6-0.3
		c-0.1,0-0.1,0-0.2,0c-2.9,0-5.8,0-8.8,0c-0.3,0-0.5,0.1-0.8,0.1C75.5,22,75.4,22.2,75.3,22.5 M46.3,77.4L46.3,77.4
		c1.4,0,2.7,0,4.1,0c0.2,0,0.5,0.1,0.5-0.2c0-0.3-0.3-0.3-0.5-0.3c-0.5,0-1.1-0.1-1.6-0.1c-1.1,0-2.1,0.1-3.2,0c-1.1,0-2.3,0-3.4,0
		c-0.3,0-0.5,0.2-0.5,0.4c0,0.3,0.3,0.2,0.4,0.2C43.6,77.4,45,77.4,46.3,77.4 M100.1,84.1c1.8,0,4,0.1,6.2-0.1
		c0.2,0,0.5,0.2,0.6-0.1c0-0.3-0.4-0.3-0.6-0.3c0,0-0.1,0-0.1,0c-0.8-0.1-1.7,0-2.5,0c-1.6,0-3.2,0-4.8,0c-1.7,0-3.5,0-5.2,0
		c-0.3,0-0.7-0.1-0.7,0.2c0,0.3,0.4,0.3,0.7,0.3C95.6,84.1,97.6,84.1,100.1,84.1 M57.2,63.9L57.2,63.9c3,0,6.1,0,9.1,0
		c0.2,0,0.5,0.1,0.5-0.2c0-0.3-0.3-0.2-0.5-0.2c-1.2,0-2.5,0-3.7,0c-4.7,0-9.4,0-14.1,0c-0.3,0-0.8-0.1-0.8,0.2
		c0,0.4,0.5,0.2,0.8,0.2C51.4,63.9,54.3,63.9,57.2,63.9 M98.6,82.2L98.6,82.2c1.9,0,3.7,0,5.6,0c0.1,0,0.3,0.1,0.3-0.1
		c0-0.2-0.1-0.3-0.3-0.3c-0.3-0.1-0.7-0.1-1-0.1c-3.4,0-6.8,0-10.2,0c-0.2,0-0.6-0.1-0.6,0.2c0,0.3,0.3,0.3,0.6,0.3
		c0.1,0,0.1,0,0.2,0C95,82.2,96.8,82.2,98.6,82.2 M63.2,23.9L63.2,23.9c-2.3,0-4.7,0-7,0c-0.1,0-0.2,0-0.3,0c-0.1,0-0.3,0-0.3,0.2
		c0,0.2,0.2,0.2,0.3,0.2c0.3,0,0.6,0,0.9,0c4.2,0,8.4,0,12.6,0c0.4,0,0.7,0,1.1-0.1c0.1,0,0.3,0,0.3-0.2c0-0.1-0.1-0.2-0.3-0.2
		c-0.1,0-0.3,0-0.4,0C67.8,23.9,65.5,23.9,63.2,23.9 M87.4,110.6c-1.8,0-3.5,0-5.3,0c-0.2,0-0.3,0-0.5,0c-0.1,0-0.2,0.1-0.2,0.2
		c0,0.1,0.1,0.2,0.2,0.2c0.2,0.1,0.5,0.1,0.7,0.1c3,0,6.1,0,9.1,0c0.5,0,1,0,1.5,0c0.2,0,0.5-0.1,0.5-0.3c0-0.3-0.3-0.2-0.5-0.2
		C91,110.6,89.2,110.6,87.4,110.6 M43.7,82.2L43.7,82.2c1.9,0,3.7,0,5.6,0c0.2,0,0.4,0,0.4-0.2c0-0.3-0.2-0.2-0.4-0.3
		c-0.5-0.2-1,0-1.5,0c-3,0-6,0-8.9,0c-0.2,0-0.5,0-0.7,0c-0.2,0-0.3,0.2-0.3,0.4c0,0.2,0.2,0.1,0.4,0.1
		C40.1,82.2,41.9,82.2,43.7,82.2 M79,24.3c1.1,0,2.2,0,3.2,0c1.3,0,2.6,0,3.9,0c0.2,0,0.5,0.1,0.5-0.2c0-0.3-0.3-0.2-0.5-0.2
		c-4.6,0-9.2,0-13.8,0c-0.3,0-0.8-0.2-0.8,0.2c0,0.4,0.5,0.3,0.8,0.3C74.6,24.3,76.8,24.3,79,24.3 M101.7,88L101.7,88
		c2.6,0,5.2,0,7.8,0c0.1,0,0.2,0,0.3,0c0.1,0,0.3-0.1,0.3-0.2c0-0.2-0.2-0.2-0.3-0.2c-0.2,0-0.4,0-0.6,0c-5.1,0-10.2,0-15.3,0
		c-0.2,0-0.5-0.1-0.5,0.2c0,0.3,0.3,0.3,0.5,0.3c0.1,0,0.1,0,0.2,0C96.6,88,99.2,88,101.7,88 M102.1,88.5L102.1,88.5
		c-1.5,0-3,0-4.5,0c-1.2,0-2.5,0-3.7,0c-0.1,0-0.3,0-0.3,0.2c0,0.2,0.2,0.3,0.3,0.3c0.1,0,0.2,0,0.3,0c5.1,0,10.1,0,15.2,0
		c0.3,0,0.6,0,0.9,0c0.1,0,0.3,0,0.3-0.2c0-0.2-0.1-0.2-0.3-0.2c-0.1,0-0.3,0-0.4,0C107.3,88.5,104.7,88.5,102.1,88.5 M85.5,62
		C85.5,62,85.5,61.9,85.5,62c2.6,0,5.3,0,7.9,0c0.2,0,0.7,0.1,0.7-0.2c0-0.3-0.4-0.3-0.7-0.3c0,0-0.1,0-0.1,0c-3.4,0-6.8,0-10.2,0
		c-1.9,0-3.8-0.1-5.7,0.1c-0.2,0-0.4,0-0.4,0.2c0,0.3,0.2,0.2,0.4,0.2C80.1,62,82.8,62,85.5,62 M42.3,84.1L42.3,84.1
		c2.1,0,4.2,0,6.4,0c0.3,0,0.7,0.1,0.7-0.3c0-0.4-0.5-0.2-0.7-0.2c-1.6,0-3.1,0.1-4.7,0c-2.7-0.1-5.4,0-8.1,0
		c-0.2,0-0.4,0.2-0.4,0.4c0,0.2,0.2,0.2,0.4,0.2C38,84.1,40.2,84.1,42.3,84.1 M86.3,64.8c2.7,0,5.4,0,8,0c0.3,0,0.7,0.2,0.8-0.2
		c0-0.5-0.5-0.3-0.8-0.3c-4.6,0-9.3,0-13.9,0c-0.9,0-1.8,0-2.7,0c-0.2,0-0.4-0.1-0.4,0.2c0,0.2,0.2,0.3,0.4,0.3c0.1,0,0.2,0,0.3,0
		C80.8,64.8,83.6,64.8,86.3,64.8 M79.3,24.8L79.3,24.8c-2.2,0-4.4,0-6.5,0c-0.1,0-0.3,0-0.4,0c-0.1,0-0.2,0-0.3,0.2
		c0,0.2,0.1,0.3,0.2,0.3c0.3,0,0.6,0.1,0.9,0.1c2.8,0,5.7,0,8.5,0c1.4,0,2.8-0.2,4.2,0c0.1,0,0.3,0,0.4,0c0.2,0,0.4,0,0.4-0.2
		c0-0.2-0.2-0.2-0.3-0.2c-0.2,0-0.5-0.1-0.7-0.1C83.6,24.8,81.4,24.8,79.3,24.8 M62.7,24.8L62.7,24.8c-1.3,0-2.5,0-3.8,0
		c-1,0-1.9,0-2.9,0c-0.2,0-0.4,0-0.4,0.2c0,0.2,0.2,0.3,0.4,0.3c0.1,0,0.3,0,0.4,0c1.3-0.2,2.6,0,3.9,0c3.1,0,6.2,0,9.3,0
		c0.1,0,0.2,0,0.3,0c0.2,0,0.3-0.2,0.2-0.3c0-0.2-0.2-0.2-0.3-0.2c-0.2,0-0.4,0-0.7,0C67.1,24.8,64.9,24.8,62.7,24.8 M86.6,65.3
		c-2.9,0-5.7,0-8.6,0c-0.2,0-0.4-0.1-0.4,0.2c0,0.2,0.2,0.3,0.4,0.3c0.1,0,0.3,0,0.4,0c1.8,0,3.5,0,5.3,0c3.7,0,7.5,0,11.2,0
		c0.2,0,0.5,0.1,0.5-0.2c0-0.3-0.3-0.2-0.5-0.3c-0.1,0-0.2,0-0.3,0C92,65.3,89.3,65.3,86.6,65.3 M56.7,61.4L56.7,61.4
		c-2.5,0-5,0-7.4,0c-0.2,0-0.4,0-0.7,0.1c-0.1,0-0.3,0.1-0.3,0.3c0,0.2,0.2,0.1,0.3,0.2c0.1,0,0.2,0,0.3,0c5.4,0,10.8,0,16.1,0
		c0.5,0,1.1,0.1,1.6,0c0.1,0,0.3,0,0.3-0.2c0-0.1-0.2-0.1-0.3-0.1c-0.9-0.1-1.9-0.2-2.8-0.2C61.5,61.4,59.1,61.4,56.7,61.4
		 M101,85.1C101,85.1,101,85.1,101,85.1c2.5,0.1,5,0.1,7.5,0.1c0.1,0,0.3,0.1,0.3-0.1c0-0.2-0.1-0.2-0.2-0.3
		c-0.5-0.3-1.1-0.2-1.7-0.2c-4.5,0-8.9,0-13.4,0c-0.2,0-0.5,0-0.5,0.3c0,0.3,0.3,0.2,0.5,0.2C96,85.1,98.5,85.1,101,85.1 M56.9,64.8
		L56.9,64.8c3,0,6,0,9.1,0c0.3,0,0.7,0.2,0.8-0.2c0-0.5-0.5-0.3-0.7-0.3c-5.9,0-11.8,0-17.7,0c-0.2,0-0.5,0-0.7,0.1
		c-0.1,0-0.3,0-0.3,0.2c0,0.2,0.2,0.2,0.4,0.2c0.1,0,0.1,0,0.2,0C50.8,64.8,53.9,64.8,56.9,64.8 M41.2,85.1L41.2,85.1
		c1.4,0,2.9,0,4.3,0c1.1,0,2.2,0,3.3,0c0.2,0,0.5,0,0.4-0.3c0-0.3-0.3-0.2-0.4-0.2c-4.6,0-9.1,0-13.7,0c-0.4,0-0.9,0-1.3,0.1
		c-0.2,0.1-0.4,0.1-0.4,0.3c0,0.2,0.3,0.1,0.4,0.1C36.3,85.1,38.7,85.1,41.2,85.1 M56.8,65.3L56.8,65.3c-3.1,0-6.3,0-9.4,0
		c-0.2,0-0.6-0.1-0.6,0.3c0,0.3,0.3,0.2,0.5,0.2c6.2,0,12.4,0,18.5,0c0.1,0,0.3,0,0.4,0c0.1,0,0.2-0.1,0.2-0.2
		c0-0.2-0.1-0.2-0.3-0.2c-0.1,0-0.3,0-0.4,0C62.9,65.3,59.8,65.3,56.8,65.3 M86.9,66.2L86.9,66.2c-2.8,0-5.7,0-8.5,0
		c-0.2,0-0.4,0-0.4,0.3c0,0.2,0.2,0.3,0.4,0.3c0.7,0,1.4,0,2.2,0c1.4,0,2.8-0.4,4.2-0.2c0.7,0.1,1.3,0.2,2,0.2c2.9,0,5.7,0,8.6,0
		c0.1,0,0.3,0,0.4,0c0.1,0,0.2-0.1,0.2-0.2c0-0.1-0.1-0.2-0.2-0.2c-0.1-0.1-0.3-0.1-0.5-0.1C92.5,66.2,89.7,66.2,86.9,66.2
		 M40.2,88.9L40.2,88.9c2.6,0,5.1,0,7.7,0c0.3,0,0.7,0.2,0.7-0.3c0-0.4-0.5-0.3-0.7-0.3c-5.1,0-10.3,0-15.4,0
		c-0.2,0-0.5-0.1-0.6,0.3c0,0.4,0.3,0.2,0.5,0.2C35,88.9,37.6,88.9,40.2,88.9 M86,63.9L86,63.9c2.7,0,5.4,0,8.1,0
		c0.2,0,0.6,0.2,0.6-0.2c0-0.4-0.4-0.3-0.7-0.4c-0.1,0-0.1,0-0.2,0c-5.4,0-10.7,0-16.1,0c-0.3,0-0.6,0-0.6,0.3
		c0,0.4,0.4,0.2,0.6,0.2C80.6,63.9,83.3,63.9,86,63.9 M106,85.6L106,85.6c-4,0-8,0-12.1,0c-0.3,0-0.8-0.2-0.8,0.3
		c0,0.4,0.5,0.2,0.8,0.2c5.5,0,11,0,16.4,0c2.6,0,5.2,0,7.8,0c0.3,0,0.7,0,0.7-0.2c0-0.4-0.4-0.2-0.7-0.2
		C114.2,85.6,110.1,85.6,106,85.6 M45.3,88c0.9,0,1.8,0,2.7,0c0.2,0,0.4,0,0.5-0.1c0.1,0,0.3-0.1,0.2-0.3c0-0.1-0.1-0.2-0.2-0.2
		c-0.4-0.1-0.8,0-1.2,0c-5.7,0-11.3,0-17,0c-1.3,0-2.5,0-3.8,0c-0.3,0-0.7-0.1-0.7,0.3c0,0.3,0.4,0.2,0.7,0.2c2.1,0,4.2,0,6.4,0
		c1.3,0,2.6,0,4,0C39.7,88,42.5,88,45.3,88 M104.8,86.5L104.8,86.5c-3.6,0-7.2,0-10.8,0c-0.2,0-0.6-0.1-0.6,0.3
		c0,0.3,0.3,0.3,0.6,0.3c0.1,0,0.2,0,0.3,0c2.9,0,5.9,0,8.8,0c2.2,0,4.4-0.1,6.5,0c2,0.1,4.1-0.1,6.1,0c0.2,0,0.4,0.1,0.4-0.2
		c0-0.2-0.2-0.3-0.4-0.3c-0.1,0-0.2,0-0.3,0C111.9,86.5,108.3,86.5,104.8,86.5 M37.5,87c3.5,0,7,0,10.4,0c0.2,0,0.4,0,0.7,0
		c0.1,0,0.2-0.1,0.2-0.3c0-0.2-0.1-0.2-0.2-0.2c-0.1,0-0.3,0-0.4,0c-5.2,0-10.4,0-15.6,0c-1.9,0-3.8,0-5.7,0c-0.3,0-0.5,0.1-0.5,0.3
		c0,0.3,0.3,0.2,0.4,0.2C30.4,87,34,87,37.5,87 M49.8,105.1c0.2-0.2,0.4-0.3,0.6-0.3c0.8-0.1,1.6-0.3,2.4-0.3c1.2,0,2.5-0.2,3.7-0.1
		c0.4,0,0.6-0.2,0.5-0.5c-0.2-0.4,0.1-0.6,0.2-0.8c0.1-0.2,0.3-0.3,0.1-0.6c-0.2-0.2-0.4-0.2-0.6-0.1c-1.5,0.4-3,0.5-4.6,0.5
		c-0.9,0-1.9,0.1-2.8,0.2c-0.2,0-0.3,0.1-0.3,0.3c0.1,0.6,0,1.3,0,1.9c0,0.4,0.2,0.5,0.5,0.5c0.7,0,1.5,0,2.2,0c1.6,0,3.3,0,4.9,0
		c0.2,0,0.5,0,0.5-0.3c0-0.4-0.3-0.3-0.5-0.3c-0.8,0-1.7,0-2.5,0C52.8,105.1,51.3,105.1,49.8,105.1 M88.1,106.8L88.1,106.8
		c-0.6,0-1.1,0-1.7,0c-1-0.1-1.9,0.1-2.7,0.6c-0.2,0.1-0.5,0.2-0.3,0.4c0.2,0.4,0.3,0.9,0.8,1.2c1.5,0.8,3,0.9,4.6,0.3
		c1.1-0.4,1.8-1.2,2.5-2c0.1-0.1,0.3-0.2,0.2-0.4c-0.1-0.2-0.3-0.1-0.4-0.1C90,106.8,89.1,106.8,88.1,106.8 M55.2,106.8
		c-1.2,0.1-2.5-0.1-3.7,0.1c-0.2,0-0.4,0-0.3,0.3c0.2,0.4,0.4,0.8,0.8,1.1c1.3,1.2,2.8,1.5,4.5,1.3c1.1-0.2,2.2-0.5,2.7-1.6
		c0.1-0.2,0.6-0.4,0.3-0.8c-0.2-0.2-0.5-0.4-0.8-0.4c-0.1,0-0.2,0-0.3,0C57.2,106.8,56.2,106.8,55.2,106.8 M91.9,105
		c-0.6,0-1.1,0-1.5,0c-1.4,0-2.7,0-4.1,0c-0.3,0-0.5,0.1-0.5,0.4c0,0.4,0.3,0.3,0.5,0.3c2.1,0,4.2,0,6.3,0c0.4,0,0.6-0.1,0.6-0.6
		c0-0.6,0-1.2,0-1.8c0-0.3-0.1-0.5-0.5-0.5c-0.6,0-1.3,0-1.9,0c-2-0.1-4-0.2-6-0.6c-0.1,0-0.3-0.1-0.3,0c-0.1,0.2,0.1,0.2,0.2,0.3
		c0.6,0.4,1.1,0.8,1.3,1.6c0.1,0.3,0.3,0.4,0.6,0.3c1.2,0,2.5,0.1,3.7,0.2C90.6,104.7,91.2,104.7,91.9,105 M57,73.8
		c0.1,0,0.3,0,0.6,0c0.3,0,0.5-0.1,0.8-0.1c3.1-0.5,5.4-2.1,6.9-4.8c0.2-0.3,0.1-0.4-0.2-0.5c-0.4-0.1-0.8-0.2-1.1-0.3
		c-2-0.4-3.9-0.7-6-0.4c-0.6,0.1-1.3,0.2-1.7,0.8c-1.1,1.3-1.8,2.8-2.4,4.3c-0.1,0.2,0,0.3,0.2,0.4C54.9,73.6,55.9,73.9,57,73.8
		 M78.6,38c-0.3,0.2-0.4,0.4-0.5,0.7c-1,2.6-1.4,5.2-1.1,8c0.3,2.1,0.8,4.2,2.4,5.8c0.2,0.2,0.2,0.4,0,0.6c-0.5,0.4-0.9,1-1.2,1.5
		c-0.9,1.8-1.3,3.7-1.3,5.7c0,0.5,0.2,0.7,0.7,0.7c1-0.1,2-0.1,3.1-0.3c1.1-0.2,2.3-0.3,3.4-0.7c0.5-0.2,0.7-0.5,0.7-1.1
		c-0.1-1.1-0.4-2.1-0.7-3.2c-0.5-1.8-1-3.6-1.6-5.4c-0.5-1.6-1-3.2-1.5-4.8c-0.4-1.2-0.8-2.4-1.2-3.6C79.5,40.6,79,39.4,78.6,38
		 M66.7,43.1c0-0.7,0-1.3-0.1-1.9c-0.2-1.2-0.5-2.4-1.1-3.5c-0.1-0.2-0.3-0.5-0.5-0.4c-0.3,0-0.3,0.3-0.4,0.6
		c-0.9,2.8-1.8,5.6-2.7,8.4c-0.8,2.7-1.7,5.3-2.5,8c-0.4,1.7-0.9,3.3-1.2,5c-0.1,0.7,0,0.9,0.6,1c0.6,0.2,1.2,0.3,1.8,0.4
		c1.9,0.2,3.7,0.4,5.6,0.5c0.7,0,0.7,0,0.6-0.7c-0.1-1.2-0.4-2.3-0.8-3.5c-0.6-1.7-1.5-3.3-3-4.4c-0.3-0.2-0.3-0.4,0.1-0.6
		c0.4-0.1,0.6-0.4,0.9-0.7c0.8-0.9,1.4-2,1.8-3.2C66.4,46.5,66.7,44.8,66.7,43.1 M88.2,32c-1.3-0.1-2.5,0.2-3.7,0.6
		c-0.3,0.1-0.3,0.2-0.2,0.5c0.2,0.5,0.4,1,0.6,1.5c0.9,2.5,1.8,5.1,2.8,7.6c1,2.6,1.9,5.2,2.9,7.8c1.4,3.5,2.6,7,3.9,10.4
		c0.8,2.1,1.6,4.1,2.4,6.2c0.1,0.2-0.1,0.5,0.3,0.5c0.3,0,0.3-0.3,0.4-0.5c0.6-1.3,1-2.7,1.1-4.2c0.3-3.6-0.4-6.9-2.9-9.7
		c-0.3-0.3-0.3-0.5,0-0.8c2.1-2.1,2.9-4.8,3.1-7.7c0.1-2.3-0.4-4.5-1.4-6.5c-0.6-1.2-1.3-2.4-2.4-3.3C93.1,32.7,90.8,31.9,88.2,32
		 M89.6,102.3c0.8,0.1,1.6,0.1,2.5,0c0.2,0,0.4,0,0.6,0c0.3,0.1,0.4,0,0.5-0.2c0.1-0.5,0.2-1,0.2-1.5c0-0.1,0-0.1,0-0.2
		c0.3-1.8,0.4-3.7,0.3-5.5c-0.1-1.8-0.2-3.5-0.4-5.3c-0.2-1.1-0.2-2.2-0.5-3.3c0-0.1,0-0.2,0-0.3c0-0.3,0-0.7-0.2-1
		c0-0.1,0-0.1-0.1-0.2c0-0.2,0.1-0.4-0.1-0.6c0-0.2-0.1-0.4-0.1-0.6c0-0.7-0.2-1.4-0.4-2c0-0.1,0-0.2-0.1-0.3
		c0.1-0.6-0.2-1.1-0.3-1.6c0-0.4-0.3-0.6-0.7-0.6c-1.3,0-2.6,0.1-3.9-0.1c-2.4-0.3-4.7-0.9-6.8-2c-1.7-0.9-3.2-1.9-4.7-3.1
		c-0.1-0.1-0.2-0.3-0.4-0.2c-0.2,0.1-0.1,0.3-0.1,0.5c0,0.7,0,1.3,0,2c0,4.6,0,9.2,0.2,13.8c0,1.1,0.1,2.2,0.3,3.3
		c0,0.2,0,0.4,0.1,0.7c0,0.3,0,0.6,0.1,0.8c0.2,0.7,0.1,1.5,0.7,2c0.1,0.3,0.4,0.4,0.6,0.5c0.9,0.6,1.9,0.9,2.9,1.1
		c0.1,0,0.1,0,0.2,0c0.1,0.1,0.2,0.1,0.3,0.1c0.1,0,0.3,0,0.4,0c0.3,0.1,0.5,0.1,0.8,0.1c0.1,0.1,0.3,0.2,0.4,0.4
		c0.1,0.2,0.1,0.5,0.2,0.7c0.2,0.7,0.6,1.2,1.2,1.5c0.2,0.1,0.4,0.3,0.6,0.3c0.4,0.4,0.8,0.4,1.3,0.5c0.1,0,0.1,0,0.2,0
		c0.4,0.2,0.7,0.2,1.1,0.2c0.1,0,0.1,0,0.2,0c0.1,0.1,0.1,0.1,0.2,0.1c0.3,0,0.6,0.1,0.9,0.1c0.1,0.1,0.1,0.1,0.2,0
		C88.6,102.2,89.1,102.3,89.6,102.3 M67.7,87.3c0-0.3,0-0.7,0-1c0.2-3.2,0.1-6.4,0.1-9.6c0-0.1,0-0.2,0-0.2c0-0.3,0-0.7,0.1-1
		c0-0.3-0.1-0.4-0.4-0.2c-0.1,0.1-0.3,0.1-0.3,0.3c-0.1,0-0.1,0.1-0.2,0.1c-0.3,0.2-0.6,0.4-0.9,0.6c-2.5,1.8-5.4,2.6-8.4,2.8
		c-1.8,0.1-3.6-0.3-5.2-1c-0.3-0.1-0.5-0.1-0.6,0.3c-0.5,2-1,3.9-1.3,5.9c-0.1,0.9-0.4,1.8-0.5,2.7c0,0.3-0.1,0.6-0.1,0.9
		c-0.5,3-0.6,6-0.8,9.1c-0.1,1.5,0.1,3,0.3,4.5c0.1,0.4,0.1,0.9,0.7,0.9c2.4,0.1,4.8,0,7.1-0.6c1.3-0.4,2.6-1,3-2.4
		c0.2-0.7,0.6-0.8,1.2-0.8c1.5-0.1,2.8-0.6,4.1-1.4c0.3-0.1,0.4-0.3,0.6-0.5c0,0,0.1-0.1,0.1-0.1c0.8-0.5,0.7-1.4,0.9-2.2
		c0-0.1,0-0.2,0-0.3c0.1-0.1,0.1-0.1,0.1-0.2c0-0.1,0-0.2,0-0.3c0.1-0.8,0.4-1.6,0.3-2.5c0-0.2,0-0.4,0.1-0.5
		C67.7,89.4,67.7,88.3,67.7,87.3 M79,68.5c0,0.2,0.2,0.3,0.3,0.4c0,0.1,0,0.2,0.1,0.2c0.4,0.6,0.8,1.1,1.3,1.6
		c1.7,1.4,3.7,2.1,5.8,2.3c0.7,0.1,1.5,0.1,2.2,0c0.2,0,0.5-0.1,0.3-0.4c-0.2-0.5-0.3-1-0.5-1.5c0-0.2,0-0.3-0.2-0.4
		c-0.2-0.3-0.3-0.6-0.4-1c-0.1-0.7-0.6-1.3-1-1.7c-0.5-0.5-1.3-0.6-2-0.5c-0.5-0.1-1-0.1-1.4,0c-0.5-0.1-1.1-0.1-1.6,0.1
		c-0.4,0.1-0.8-0.1-1.1,0.3c-0.2,0-0.4,0.1-0.6,0.1c-0.2-0.1-0.3-0.1-0.4,0.1c-0.1,0-0.1,0-0.2,0c-0.3-0.2-0.5,0-0.8,0.1
		C78.9,68.2,78.7,68.3,79,68.5 M48.1,62.8c0.3,0.1,0.5,0.1,0.8,0.1c2,0,4.1,0,6.1,0c3.8,0,7.6,0,11.4,0c0.1,0,0.1,0,0.2-0.1
		c0.1,0,0.1,0,0.2,0c0.1,0,0.2,0,0.2-0.1c0-0.1-0.1-0.1-0.2-0.1c-0.3,0-0.6-0.1-0.9-0.1c-4.3,0-8.6,0-12.9,0c-1.5,0-3.1-0.1-4.6,0
		C48,62.5,47.9,62.5,48.1,62.8 M77.4,62.9c0.2,0,0.5,0,0.7,0c5.2,0,10.5,0,15.7,0c0.2,0,0.5,0.2,0.6-0.1c0.1-0.3-0.3-0.3-0.5-0.4
		c-0.2,0-0.4-0.1-0.6-0.1c-5.2,0-10.3,0-15.5,0c-0.2,0-0.4,0-0.6,0.1c-0.2,0-0.3,0.1-0.2,0.3C77.1,62.9,77.2,62.9,77.4,62.9
		 M92.3,80.9c-0.2,0.1-0.1,0.2,0,0.3c0.1,0,0.2,0,0.3,0.1c1.7,0,3.4,0,5.1,0c1.8,0,3.7,0.1,5.5-0.1c0.2-0.1,0.1-0.2,0-0.2
		c-0.3,0-0.6-0.1-0.9-0.1c-3.2,0-6.5,0-9.7,0C92.5,80.8,92.5,80.8,92.3,80.9C92.4,80.9,92.4,80.9,92.3,80.9 M25.5,86
		c0.4,0,0.8,0.1,1.2,0c0.2,0,0.4,0.2,0.7,0c0.8,0,1.7,0,2.5,0c0.1,0.1,0.1,0.1,0.2,0c0.7,0,1.4,0,2,0c0.1,0.1,0.2,0.1,0.3,0
		c0.1,0,0.2,0,0.4,0c0.3,0.1,0.5,0.1,0.8,0c0.1,0,0.2,0,0.2,0c0.2,0.1,0.4,0.1,0.6,0c0.3,0,0.6,0,0.9,0c0.1,0.1,0.3,0.1,0.4,0
		c0.2,0,0.4,0,0.6,0c0.2,0.1,0.4,0.1,0.5,0.1c1,0,2.1,0,3.1,0c0.3,0,0.6,0.1,0.9-0.1c0.1,0,0.2,0,0.4,0c1,0.1,2,0.1,3,0
		c0.1,0,0.2,0,0.4,0c0.1,0.1,0.3,0.1,0.5,0.1c0.9,0,1.9,0,2.8,0c0.3,0,0.6,0,0.8,0c0.2,0,0.3-0.1,0.3-0.3c0-0.2-0.1-0.3-0.3-0.2
		c-0.2,0-0.4,0-0.7,0c-0.4-0.2-0.8-0.1-1.2,0c-0.5,0-1,0-1.5,0c-1.2-0.1-2.3-0.1-3.5,0c-0.7,0-1.3,0-2,0c-0.1,0-0.2-0.1-0.3-0.1
		c-1.2,0-2.3,0-3.5,0c-4.1,0-8.3,0-12.4,0c-0.2,0-0.4-0.1-0.4,0.2c0,0.2,0.2,0.3,0.4,0.3C24.3,86,24.9,86.2,25.5,86 M88.1,68.3
		c-0.1-0.1-0.3-0.1-0.4,0.1c-0.1,0.2,0.1,0.2,0.3,0.2c0.1,0,0.2,0.1,0.4,0.1c2.6,0,5.3,0,7.9,0c0.2,0,0.4,0,0.3-0.3
		c0-0.2-0.1-0.2-0.2-0.2c-0.1-0.1-0.3,0-0.4,0c-0.1-0.1-0.2-0.1-0.3,0c-0.2,0-0.4-0.1-0.6-0.1c-1.9,0-3.8,0-5.8,0
		C88.9,68.2,88.5,68.1,88.1,68.3 M48.8,61c3.3,0,6.5,0,9.8,0c0.1,0,0.4,0.1,0.4-0.1c0-0.2-0.2-0.1-0.4-0.1c-0.1,0-0.1,0-0.2,0
		c-0.1-0.1-0.1-0.2-0.3-0.2c-0.3,0-0.5,0-0.8,0c-0.1-0.2-0.3-0.1-0.5,0c-0.2,0-0.4,0-0.7,0c-0.1,0-0.2-0.1-0.3-0.1
		c-1.6,0-3.2,0-4.8,0c-0.1,0-0.3,0-0.4,0.1c-0.7,0-1.4-0.1-2.1,0c-0.1,0-0.2,0.1-0.2,0.2C48.6,60.9,48.6,61,48.8,61 M39.4,80.9
		c-0.2-0.3-0.4-0.1-0.5,0c-0.1,0.1-0.2,0.3,0.1,0.3c2.5,0,4.9,0,7.4,0c1.1,0,2.1,0.1,3.2,0c0.2,0,0.4,0,0.4-0.3
		c0-0.4-0.3-0.2-0.5-0.2c-3,0-6.1,0-9.1,0c-0.2,0-0.4-0.1-0.6,0.2C39.6,80.9,39.5,80.9,39.4,80.9 M102.2,90.5c-2.6-0.1-5.2,0-7.8,0
		c-0.1,0-0.2,0-0.3,0c-0.2,0-0.4,0.1-0.3,0.3c0,0.2,0.1,0.3,0.4,0.2c0.1,0,0.2-0.1,0.3-0.1c2.6,0,5.1,0,7.7,0c0.2,0,0.4,0.1,0.4-0.2
		C102.4,90.5,102.4,90.4,102.2,90.5 M97.9,72.5c0,0,0.1,0,0.1,0c0.1,0,0.1,0,0.2,0c0.2,0,0.3-0.1,0.1-0.3c-0.2-0.2-0.4-0.2-0.6-0.2
		c-2.5,0-5,0-7.5,0c-0.1,0-0.3,0-0.4,0.1c-0.1,0-0.2,0.1-0.1,0.3c0,0.1,0.1,0.2,0.2,0.1c0.2,0.1,0.4,0.1,0.5,0.1c0,0,0.1,0.1,0.1,0
		c0.4,0.1,0.8,0.1,1.2,0l0,0l0,0c1.5,0,3.1,0,4.6,0C96.8,72.6,97.3,72.6,97.9,72.5 M81.7,42.2c-0.3,0-0.5,0-0.8,0
		c-0.1,0-0.2,0.1-0.2,0.2c0,0.1,0.1,0.2,0.2,0.2c0.1,0,0.3,0.1,0.4,0.1c1.7,0,3.3,0,5,0c0.2,0,0.4,0.1,0.4-0.2
		c0-0.3-0.2-0.2-0.4-0.3c-1.5-0.1-3-0.1-4.5,0C81.8,42.2,81.8,42.2,81.7,42.2 M84.2,53.9c-0.1,0.4,0.2,0.4,0.4,0.4
		c1.2,0,2.4,0,3.7,0c0.9,0,1.9,0.1,2.8-0.1c0.1,0,0.2,0,0.2-0.1c0,0-0.1-0.1-0.2-0.1c-0.2-0.2-0.4-0.2-0.6-0.2c-2,0-4,0-6,0
		C84.4,53.6,84.3,53.6,84.2,53.9 M56.5,42.2c-0.1,0-0.2,0-0.2,0c-0.1,0-0.1,0-0.2,0c-0.2-0.1-0.4-0.1-0.5,0.1c0,0.1,0,0.2,0,0.3
		c0.1,0.2,0.3,0.1,0.4,0.1c1.8,0.1,3.6,0.1,5.4,0c0.3,0.1,0.4-0.1,0.3-0.3c0-0.3-0.3-0.2-0.4-0.2C59.7,42.1,58.1,42.1,56.5,42.2
		 M94.2,93.7c0.2,0,0.5,0.1,0.7,0.1c2.5,0,5.1,0,7.6,0c0,0,0.1,0,0.1,0c0.1-0.1,0.2-0.2,0.2-0.3c-0.1-0.2-0.3-0.2-0.5-0.2
		c-2.6,0-5.1,0-7.7,0c-0.1,0-0.2,0-0.2,0.1c-0.1,0-0.1,0-0.2,0c-0.2,0-0.2,0.1-0.2,0.2C93.9,93.7,94,93.8,94.2,93.7 M86.2,60
		c0.1,0,0.1,0.1,0.2,0.1c2.2,0,4.4,0,6.6,0c0.1,0,0.3,0,0.3-0.2c0-0.4-0.3-0.3-0.6-0.3c-1.3,0-2.6,0-3.9,0c-1.1,0-2.2-0.1-3.3,0
		c-0.2,0.1-0.2,0.2,0,0.3C85.8,60,86,60,86.2,60 M57.7,41.2c-0.4,0-0.9,0-1.3,0c-0.2,0-0.4,0-0.4,0.2c0,0.3,0.3,0.2,0.4,0.2
		c1.6,0,3.3,0,4.9,0c0.2,0,0.4,0,0.5-0.1c0.1-0.1,0.2-0.2,0-0.3c-0.1-0.1-0.2-0.1-0.4-0.1c-1.2,0-2.5,0-3.7,0
		C57.8,41.2,57.7,41.2,57.7,41.2 M54.9,35.8c0.6,0.5,1.8,0.5,2.4-0.1c0.2-0.1,0.3-0.1,0.4-0.3c0.1,0,0.2-0.1,0.2-0.3c0,0,0,0,0-0.1
		c0.4-0.3,0.6-0.8,0.5-1.3c-0.1-0.4,0.1-0.8,0.2-1.1c0.2-0.7,0.5-1.4,0.7-2.2c0.2-0.6,0.1-0.7-0.5-0.7c-1.8-0.1-3.7,0-5.5,0.3
		c-0.6,0.1-1.1,0.1-1.7,0c-0.7-0.1-1.3-0.5-2-0.7l0,0c-0.1-0.2-0.2-0.3-0.5-0.3L49,28.7c-0.3-0.4-0.7-0.8-1-1.3
		c-0.3-0.5-0.6-0.5-0.8,0c-0.3,0.6-0.6,1.3-0.5,2.1c0,0.1,0,0.1,0,0.2c-0.1,0.3,0,0.5,0.2,0.6c0,0.1,0.1,0.3,0.1,0.4
		c0,0.6,0.5,0.8,0.8,1.2c0.1,0.1,0.2,0.2,0.3,0.3c0.1,0.2,0.2,0.3,0.4,0.4c1.1,0.7,2.3,0.9,3.6,0.8c0.3,0,0.6,0,0.9-0.1
		c0.3-0.2,0.2-0.6,0.4-0.8c0.2,0.4-0.1,0.8,0.2,1.1c0,0.1,0,0.1,0,0.2C53.7,34.6,53.9,35.3,54.9,35.8C54.8,35.8,54.8,35.8,54.9,35.8
		 M93.6,60.7L93.6,60.7c-0.1-0.3-0.3-0.2-0.5-0.2c-2.8,0-5.5,0-8.3,0c-0.3,0-0.6,0-0.8,0.2c-0.1,0-0.1,0-0.2,0.1
		c-0.2-0.1-0.4,0-0.4,0.2c0,0.2,0.2,0.1,0.4,0.1c0.4,0,0.9,0,1.3-0.1c0.2,0.1,0.3,0.1,0.5,0c0.1,0,0.2,0,0.3,0c2.5,0,4.9,0,7.4,0
		c0.1,0,0.2-0.1,0.4-0.1c0.1,0,0.2,0,0.2-0.1C93.7,60.7,93.7,60.7,93.6,60.7 M84.9,54.8c-0.2,0-0.4,0-0.4,0.2c0,0.3,0.2,0.3,0.4,0.3
		c1.2,0,2.4,0,3.6,0c0.9,0,1.8,0,2.7,0c0.2,0,0.4,0,0.4-0.2c0-0.2-0.2-0.3-0.4-0.3C89.1,54.8,87,54.8,84.9,54.8 M71.2,20.4
		c0.1,0,0.2,0,0.3,0c0.8,0.2,1.7,0,2.5,0.1c0.6,0,1.2,0,1.7,0c0.2,0,0.4-0.1,0.4-0.3c0-0.2-0.1-0.2-0.3-0.2c-1.3-0.1-2.6,0-3.9,0
		c0,0-0.1,0-0.1,0c-0.2,0-0.4,0-0.7,0c-0.1,0-0.2,0-0.2,0c-1.5,0-2.9,0-4.4,0c-0.2,0-0.5-0.1-0.5,0.2c0,0.3,0.2,0.3,0.5,0.2
		c1.4,0,2.9,0.1,4.3,0C71.1,20.4,71.2,20.4,71.2,20.4 M64.7,70.8c-0.3,0.1-0.4,0.2-0.4,0.5c-0.1,0.1-0.1,0.1-0.2,0.2
		c-0.3,0.3-0.8,0.5-1.1,1c0,0,0,0-0.1,0c-0.5,0.1-0.8,0.5-1.2,0.7c-0.1,0-0.1,0-0.2,0c-0.3,0.1-0.6,0.2-0.8,0.4c-0.1,0-0.1,0-0.2,0
		c-0.1,0-0.2,0-0.2,0.1c-0.1,0-0.2,0.1-0.2,0.1c-0.9,0.2-1.8,0.3-2.7,0.5c-0.5,0-1,0-1.4,0c-0.9-0.2-1.8-0.5-2.6-0.9c0,0,0,0,0,0
		c-0.7-0.7-1.3-1.4-1.6-2.3c-0.1-0.3-0.2-0.4,0.2-0.6c0.8-0.4,1.3-1.3,1.3-2c-0.2-2-2.3-3-4-2c-0.8,0.5-1.5,1.3-1.7,2.3
		c-0.2,1.3-0.2,2.5,0.4,3.8c0.6,1.3,1.3,2.4,2.5,3.3c2.8,1.9,5.9,2.3,9.1,1.7c2.8-0.5,5.3-1.9,7.5-3.7c0.6-0.5,1.1-1,1.2-1.8
		c0-0.1,0.1-0.1,0.2-0.1c0,0.2,0,0.4,0,0.6c0,0.1,0,0.2,0,0.3c0,3.1,0,6.2,0,9.2c0,1.8-0.1,3.6-0.1,5.5c0,0.1,0,0.3,0,0.4
		c-0.2,0.2-0.1,0.5-0.1,0.7c-0.1,1.9-0.2,3.9-0.6,5.8c-0.2,0.8-0.2,1.6-0.8,2.2c-1.4,1.4-3.1,2-5,2.2C61.3,99,61,99,60.9,99.6
		c-0.2,0.6-0.5,1.2-1.1,1.5c-0.3,0.1-0.6,0.3-0.8,0.8c0.6-0.1,1.1-0.3,1.6-0.2c0.2,0,0.5,0.1,0.7,0.1c0.3,0.1,0.6,0.3,0.8,0.4l0,0
		c0,0.2,0.2,0.2,0.3,0.3c0.6,0.5,1.2,1,1.5,1.8c0.7,1.6,0.6,3.1,0,4.7c-0.2,0.5-0.1,0.7,0.3,0.9c0.9,0.5,1.9,0.6,3,0.6
		c0.4,0,0.6-0.2,0.8-0.6c0.1-0.4,0.3-0.8,0.6-1.3c0,0.5-0.1,0.9-0.2,1.3c-0.2,0.4-0.1,0.9-0.1,1.3c0,0.4,0.3,0.8,0.5,1.2
		c0.6,1,1.2,2,1.8,2.9c0.2,0.2,0.2,0.7,0.6,0.6c0.3,0,0.3-0.5,0.5-0.7c0.1-0.2,0.2-0.4,0-0.6c-0.2-0.2-0.2,0.3-0.5,0.2
		c-0.1-1.1,0.5-1.9,0.9-2.7c0.2-0.4,0.6-0.8,0.9-1.2c0.1-0.1,0.2-0.3,0.4-0.2c0.1,0.1,0.1,0.2,0,0.4c-0.1,0.4-0.3,0.8-0.6,1.2
		c-0.3,0.5-0.7,1-0.9,1.5c0,0.2-0.1,0.3,0.1,0.4c0.2,0.1,0.3,0,0.4-0.2c0.3-0.4,0.5-0.8,0.7-1.1c0.3-0.5,0.6-0.9,0.8-1.5
		c0.3-0.8-0.1-1.6-0.2-2.4c0-0.1-0.1-0.2,0-0.3c0.1-0.1,0.2,0,0.3,0.1c0.2,0.2,0.4,0.4,0.5,0.7c0.2,0.5,0.4,1,1.1,0.6
		c0.1,0,0.2,0,0.3,0c1.2,0,2.3-0.4,3.1-1.3c0.1-0.1,0.2-0.3,0.1-0.4c-0.1-0.1-0.3-0.1-0.4,0c-0.1,0.1-0.2,0.1-0.3,0.2
		c-0.7,0.7-1.7,0.8-2.7,0.9c-0.1,0-0.3,0.1-0.4-0.2c0.7-0.2,1.3-0.5,2-0.9c0.6-0.4,1-0.9,1.4-1.5c0.2-0.4,0.1-0.7-0.1-1.1
		c-0.1-0.2-0.1-0.4,0-0.6c0.3-0.9,0.4-1.8,1-2.5c0.4-0.4,0.9-0.7,1.3-1.1c0.1,0,0.2-0.1,0.3-0.1c0.5,0,1-0.2,1.5-0.1
		c0.1,0,0.2,0,0.2-0.1c0-0.1,0-0.2-0.1-0.2c-0.3-0.2-0.4-0.5-0.8-0.6c0,0-0.1-0.1-0.1-0.1c-0.3-0.5-0.6-0.9-0.7-1.4
		c0-0.2-0.2-0.2-0.4-0.2c-0.7,0-1.5-0.2-2.2-0.5c-1.6-0.5-3-1.2-3.9-2.7c0-0.1,0-0.2,0-0.3c-0.1-0.8-0.3-1.6-0.4-2.4
		c0-0.3-0.1-0.5-0.1-0.8c0-0.4,0.1-0.9-0.1-1.3c0-0.1,0-0.2,0-0.3c0-0.5,0.1-1-0.1-1.5c0-0.4,0-0.7,0-1.1c0-0.5,0.1-1-0.1-1.5
		c0-0.1,0-0.3,0-0.4c0-1.5,0-3.1,0-4.6c0-0.1,0-0.2-0.1-0.3c0-0.5,0-1,0-1.4c0.1-0.2,0.1-0.5,0-0.7c0-0.2,0-0.4,0-0.7
		c0.1-0.1,0.1-0.2,0-0.4c0-0.2,0-0.4,0-0.5c0-0.1,0-0.2,0-0.3c0-0.3,0-0.6,0-0.9c0-0.1,0.1-0.2,0.1-0.3c0-1.6,0.2-3.1-0.1-4.7
		c0-0.3,0-0.5,0.3-0.2c0,0.1,0,0.1,0,0.2c0.1,0.5,0.4,1,0.8,1.3c0.6,0.5,1.2,1,1.8,1.4c2.2,1.6,4.7,2.8,7.4,3.4
		c2.1,0.5,4.2,0.6,6.4,0.3c0.2,0,0.5,0,0.5-0.4c0-0.3-0.2-0.4-0.5-0.4c-0.3,0-0.6,0-0.9,0c-1.3,0.2-2.6,0.1-3.9-0.1
		c-3-0.5-5.8-1.7-8.3-3.4c-0.9-0.6-1.8-1.2-2.4-2c0.1,0,0.3,0.1,0.4,0.1c0.1,0.2,0.2,0.2,0.4,0.2c0.9,0.8,2,1.3,3,1.9
		c0.3,0.3,0.7,0.5,1.1,0.6c0,0,0.1,0,0.1,0c0.1,0.1,0.2,0.2,0.3,0.2l0,0l0,0c0.2,0.3,0.6,0.3,0.9,0.5c1.4,0.6,2.9,1.2,4.4,1.3
		c0.1,0,0.2,0,0.3,0.1c0.1,0.1,0.2,0.1,0.3,0.1c0.1,0,0.1,0,0.2,0c0.5,0.2,1,0.1,1.6,0.1c0.8,0.1,1.7,0,2.5-0.2
		c0.1-0.1,0.1-0.1,0-0.2c0-0.3,0-0.5-0.2-0.7c0-0.1-0.1-0.1-0.1-0.2c0-0.1,0-0.1,0-0.2c-0.1-0.2-0.1-0.4-0.2-0.6
		c0-0.1-0.1-0.2-0.1-0.4c-0.3-1-0.4-1.1-1.3-0.8c-0.1,0-0.2,0-0.3,0c-0.6-0.2-1.3-0.1-1.9-0.1c-0.2,0-0.4,0-0.5,0
		c-0.3-0.1-0.6-0.2-0.9-0.2c-0.2,0-0.4,0-0.6-0.1c-0.5-0.3-1.1-0.4-1.6-0.6c-0.2-0.1-0.3-0.2-0.5-0.2c0-0.1-0.1-0.2-0.3-0.2
		c-0.2-0.1-0.3-0.3-0.6-0.3c-0.2-0.4-0.6-0.7-1-0.9c-0.3-0.2-0.4-0.5-0.7-0.7c0-0.1-0.1-0.2-0.3-0.2c-0.4-0.7-0.9-1.3-1.3-2
		c-0.9-1.5-1.4-3-1.7-4.7c-0.4-2.2-0.5-4.5,0-6.7c0.3-1.5,0.8-3.1,1.9-4.2c0.3-0.3,0.1-0.5,0-0.7c-0.9-1.1-1.4-2.3-1.7-3.7
		c-0.9-3.6-0.6-7.1,0.8-10.5c1.2-2.9,3.3-5,6.2-6.1c2.3-0.8,4.7-0.9,7.1-0.4c2.3,0.5,4.2,1.7,5.7,3.4c1.2,1.4,2,2.9,2.5,4.6
		c0.8,2.5,0.9,5,0.4,7.5c-0.4,1.9-1.2,3.7-2.5,5.1c-0.3,0.3-0.3,0.6,0,0.8c0.1,0.1,0.2,0.2,0.3,0.3c0.2,0.4,0.4,0.7,0.7,1
		c0,0,0,0,0.1,0c0.1,0.2,0.2,0.5,0.4,0.7c0,0.2,0.1,0.4,0.2,0.5c0,0.1,0.1,0.1,0.1,0.2l0,0.2c0,0,0,0.1,0,0.1c0,0.1,0,0.1,0.1,0.2
		c0,0.1,0,0.2,0.1,0.3c0,0.1,0.1,0.3,0.1,0.4c0.1,0.6,0.3,1.3,0.4,1.9l0.1,0.8c-0.1,0.1-0.1,0.2,0,0.4c0,0.3,0,0.6,0,0.9
		c0,1.3-0.2,2.5-0.4,3.8c-0.1,0.1-0.1,0.2-0.1,0.3c-0.3,0.8-0.5,1.5-0.8,2.3c-0.1,0-0.2,0.1-0.2,0.3c-0.1,0.2-0.3,0.4-0.3,0.6
		c-0.1,0.1-0.3,0.2-0.2,0.4c0.4,0.6,0.4,1.4,0.9,2c0,0.1,0,0.2,0.1,0.3c0,0.1,0,0.2,0.2,0.3c0,0.1,0,0.2,0,0.3
		c-0.1,0.2,0,0.4,0.2,0.5c0.1,0.1,0.3,0.1,0.3-0.1c0.3-0.4,0.7-0.7,0.9-1.2c0-0.1,0.1-0.2,0.1-0.3c0.1-0.1,0.2-0.1,0.2-0.2
		c0.9-1.4,1.6-2.8,2.2-4.3c0.2-0.6,0.6-1.2,0.7-1.9c0-0.1,0.1-0.2,0.1-0.3c0.2-0.4,0.4-0.9,0.5-1.4c0.2-1,0.7-2,0.8-3.1
		c0-0.1,0-0.1,0-0.2c0.2-0.6,0.4-1.2,0.6-1.9c0.1,0.6-0.1,1.2-0.2,1.7c-0.5,2.7-1.1,5.4-2.3,8c-0.6,1.4-1.2,2.8-2.2,4
		c-0.5,0.6-1,1.3-1.4,1.9c-0.2,0.2-0.1,0.5,0.1,0.6c0.2,0.2,0.4,0,0.5-0.2c1.2-1.4,2.2-2.9,3-4.5c1.1-2.2,1.9-4.5,2.5-6.9
		c0.4-1.5,0.6-3,0.8-4.5c0.1-0.6,0.1-1.2,0.3-1.9c0.1-0.5,0-0.6-0.5-0.5c-0.5,0.1-1,0.2-1.5,0.2c-0.2-0.1-0.4-0.1-0.7-0.2
		c-0.2-0.2-0.4-0.4-0.8-0.5c-0.1-0.1-0.1-0.2-0.2-0.3c0-0.1,0-0.1-0.1-0.2c-0.8-1-0.5-2.7,0.8-3.3c0.7-0.4,1.5-0.4,2.3-0.3
		c0.4,0.1,0.6-0.1,0.6-0.5c-0.2-1.7-0.4-3.5-0.8-5.2c-0.2-1.1-0.6-2.2-0.9-3.3c-0.3-1.4-1-2.6-1.5-3.9c-0.6-1.4-1.4-2.7-2.3-4
		c-0.6-0.8-1.2-1.6-2-2.2l0,0c-0.1-0.2-0.2-0.3-0.4-0.5c-1.4-1.1-2.8-2.1-4.5-2.7C93,27.4,91.8,27,90.6,27c-0.1,0-0.2,0-0.3,0
		c-0.8-0.2-1.5-0.2-2.3-0.2c-0.2,0-0.3,0-0.4,0.2c-0.2,0.4-0.4,0.9-0.6,1.3c-0.1,0-0.1,0.1-0.2,0.1c-0.4-0.2-0.6-0.4-0.7-0.8
		c-0.2-0.7-0.3-0.7-1-0.5c-0.1,0-0.1,0-0.2,0c-0.1,0-0.3,0-0.4,0c-1.7,0.4-3.4,0.9-4.9,1.7c-0.6,0.4-1.3,0.6-1.8,1.2l0,0
		c-0.6,0.2-1.1,0.7-1.5,1.2l0,0c-0.1,0-0.2,0.1-0.2,0.1c-1.1,1.1-2.2,2.2-3,3.5c-0.3,0.5-0.8,0.8-0.9,1.4c0,0,0,0,0,0.1
		c-0.1,0-0.2,0.1-0.2,0.3c0,0.1-0.1,0.2-0.1,0.3c-0.3,0.2-0.4,0.6-0.4,1c0,0.1,0,0.2,0,0.3c-0.1,0.1-0.1,0.1,0,0.2
		c0,0.1,0,0.2-0.1,0.3C71,38.9,71,39,71,39.1c0,0.1,0,0.3-0.1,0.4c0-0.5,0-0.9-0.1-1.4c-0.1-1.2-0.7-2.1-1.4-3.1l0,0
		C69,33.8,68,33,67,32.2c-0.6-0.4-0.6-0.4-0.9,0.3c-0.4,1-0.6,2.1-1.1,3.1c-0.1,0.1-0.1,0.3,0,0.4c0.4,0.3,0.5,0.7,0.9,1
		c0,0,0,0,0,0.1c0.4,0.8,0.7,1.7,1,2.6c0,0.1,0.1,0.3,0.1,0.4c0,0.3,0,0.6,0.2,0.9c0,0.1,0,0.2,0,0.3c0,0.4-0.1,0.8,0.1,1.1
		c0,0.1,0,0.2,0,0.3c-0.2,0.8-0.1,1.6-0.2,2.3c0,0.2,0,0.4-0.1,0.5c-0.1,0.4-0.2,0.7-0.3,1.1c-0.5,1.8-1.1,3.6-2.5,5
		c-0.5,0.5-0.5,0.6,0.1,1c0.1,0.1,0.2,0.1,0.3,0.2c0,0.2,0.2,0.3,0.3,0.4c0.4,0.6,0.8,1.3,1.2,1.9c0,0.1,0,0.1,0,0.2
		c0.1,0.3,0.2,0.6,0.4,0.8c0,0.1,0,0.2,0.1,0.3c0.2,0.6,0.2,1.2,0.5,1.8c0,0.1,0,0.2,0,0.3c0.1,1,0.3,1.9,0.3,2.9c0,0.2,0,0.3,0,0.5
		c0,0.1,0,0.3,0,0.4l0,0.5c0,0.3-0.2,0.6-0.1,0.9c0,0.1,0,0.3,0,0.4c-0.3,1.4-0.6,2.7-1.1,4c0,0.1,0,0.2-0.1,0.3
		c-0.1,0-0.2,0.1-0.2,0.1C65.7,69.5,65.1,70.1,64.7,70.8L64.7,70.8L64.7,70.8z M50.4,108.8c-0.6,0-1.2,0-1.8,0
		c-0.2,0-0.4-0.1-0.4,0.2c0,0.3,0.2,0.2,0.4,0.2c1,0.1,1.9-0.1,2.9,0c0.1,0,0.3,0.1,0.3,0c0-0.2-0.2-0.4-0.4-0.3
		c-0.3,0-0.5-0.1-0.8,0C50.5,108.8,50.5,108.8,50.4,108.8 M79.4,106.2c1.1,0.1,2.2,0,3.2,0c0.3,0.2,0.6-0.1,0.9-0.1
		c0.1,0,0.2-0.1,0.1-0.2c0-0.1-0.1-0.1-0.2-0.1c-0.7,0-1.4-0.2-2.1,0.1c-0.1,0-0.2,0-0.3,0c0,0-0.1,0-0.1,0c-0.1,0-0.2,0-0.2,0
		c-0.4-0.2-0.9-0.1-1.3,0c-0.1,0-0.2,0.1-0.2,0.2C79.2,106.2,79.2,106.3,79.4,106.2 M73.6,33c0.1,0,0.2-0.1,0.2-0.2
		c0.4-0.4,0.8-0.8,1.1-1.2c0.3-0.1,0.5-0.4,0.7-0.7l0,0c0.5-0.2,0.6-0.6,0.3-1c-0.1-0.3-0.2-0.6-0.3-0.8c-0.1-0.3-0.1-0.7-0.4-0.8
		c-0.8-0.4-1.5-0.9-2.3-1.3c-0.1,0-0.1-0.1-0.2-0.1c-0.3-0.5-0.8-0.8-1.1-1.2c-0.1-0.2-0.3-0.1-0.4,0.1c-0.4,0.6-1,1-1.5,1.5
		c0,0-0.1,0.1-0.1,0.1c-0.7,0.3-1.4,0.7-2,1c-0.3,0.1-0.4,0.4-0.5,0.7c-0.2,0.6-0.4,1.1-0.5,1.7c-0.2,0.8-0.2,0.8,0.5,1.2
		c0.1,0,0.1,0.1,0.2,0.1c0,0.1,0.1,0.2,0.3,0.2c0.1,0.1,0.2,0.1,0.2,0.2c0.1,0.2,0.2,0.3,0.4,0.4l0,0l0,0c1,1.1,1.8,2.3,2.4,3.7
		c0.2,0.5,0.4,0.1,0.5-0.1l0,0C72.1,35.1,72.9,34.1,73.6,33L73.6,33z M71.7,23.3c0.8,0.1,1.6,0.1,2.4,0c0.1,0,0.2-0.1,0.2-0.2
		c0-0.2-0.1-0.2-0.3-0.2c-0.6,0-1.2-0.1-1.7,0c-0.1,0-0.2,0-0.3,0c-0.2,0-0.5-0.1-0.6,0.1C71.4,23.2,71.5,23.3,71.7,23.3 M65.5,66.8
		C65.6,66.8,65.6,66.9,65.5,66.8C65.6,66.9,65.6,66.8,65.5,66.8c0.1,0,0.2,0,0.2,0c0.3,0,0.6,0.1,0.6-0.2c0-0.3-0.3-0.3-0.6-0.3
		c-0.1,0-0.1,0-0.2,0c-4,0-8,0-12,0c-0.3,0-0.5,0-0.8,0c-0.1,0-0.2,0-0.2,0.1c0,0.1,0.1,0.1,0.1,0.2c0.2,0.2,0.4,0.2,0.7,0.2
		c0.4,0,0.8,0,1.2,0c1.2,0.1,2.3-0.1,3.5-0.3c1.1-0.2,2.2,0.1,3.3,0.1c0.2,0,0.4,0,0.7,0.1c0.2,0.1,0.4,0.1,0.6,0
		c0.8,0.1,1.6,0.1,2.3,0c0.2,0.1,0.3,0.1,0.5,0C65.4,66.8,65.5,66.8,65.5,66.8 M86,40.4c0-0.1-0.1-0.1-0.1-0.1c-0.1,0-0.1,0-0.2,0
		c-0.1-0.2-0.3-0.2-0.5-0.2c-1.5,0-3,0-4.5,0c-0.2,0-0.4,0-0.5,0.1c-0.2,0.1-0.3,0.2-0.1,0.3l0,0c0.1,0.3,0.4,0.2,0.6,0.1
		c1.8,0.1,3.6,0.1,5.3,0c0.1,0,0.2,0,0.2-0.1C86.2,40.5,86.1,40.4,86,40.4L86,40.4z M64.1,34.8L64.1,34.8c0.1-0.1,0.1-0.1,0-0.2
		c-0.1-0.1-0.3-0.2-0.4-0.2c-0.6,0-1.3,0-1.9,0c-0.4-0.1-0.8-0.1-1.1,0c-0.1,0-0.1,0-0.2,0c-0.2-0.1-0.3-0.1-0.5,0
		c-0.1,0-0.1,0-0.2,0c-0.2-0.1-0.2,0-0.2,0.2c-0.1,0.3,0.1,0.3,0.3,0.3c0.2,0,0.5,0,0.7,0c1.1,0,2.3,0.1,3.4-0.1
		C64,34.8,64.1,34.8,64.1,34.8 M70.7,117.6c0.1-0.6-0.3-1-0.5-1.5c0-0.1,0-0.2-0.2-0.2c-0.5-1-1.3-1.9-1.8-2.9
		c-0.2-0.4-0.4-0.7-0.5-1.1c-0.1-0.2-0.3-0.3-0.5-0.3c-0.7,0-1.3-0.1-2-0.2c-0.4-0.1-0.7-0.3-1-0.5c-0.6-0.5-0.9-0.4-1.4,0.1
		c-0.7,0.9-1.7,1.7-2.7,2.2c-0.9,0.6-2,0.9-3,1c-1.7,0.2-3.3,0.1-4.9-0.6c-0.9-0.4-1.8-0.7-2.5-1.3c-0.5-0.4-1-0.7-1.4-1.2
		c-0.6-0.8-1.3-1.3-2.2-1.6c-0.9-0.4-1.6-1-2.2-1.7c-0.6-0.7-0.8-1.5-0.8-2.4c0-0.2,0-0.3-0.2-0.4c0-0.1,0-0.3,0-0.4
		c0.4-0.6,0.4-0.8-0.1-1l0,0c0-0.2-0.1-0.2-0.2-0.2c-0.1-0.1-0.2-0.2-0.4-0.1c-0.4-0.6-1-1.1-1.5-1.7c-0.4-0.6-0.6-1.2-0.6-1.8
		c0-0.1,0-0.3-0.1-0.4c0-0.1,0-0.2,0-0.3c0-0.1,0-0.2-0.1-0.2c0-0.1,0-0.1,0.1-0.2c0.1-0.4,0.5-0.9,0.1-1.3c0-0.1,0-0.2,0-0.2
		c0.3,0.1,0.4,0,0.3-0.3c-0.1-0.3-0.2-0.5-0.4-0.8c-0.9-1.4-1.2-2.9-0.9-4.5c0-0.2,0.2-0.3,0-0.5c-0.2-0.1-0.3,0-0.5,0.1
		c-0.4,0.2-0.7,0.4-1.1,0.7c-0.3,0-0.5,0-0.8,0.1c-0.2,0-0.3-0.1-0.4,0.1c-0.7,0-1.4,0-2,0c-0.2-0.1-0.4-0.1-0.6-0.1
		c-0.7-0.2-1.4-0.4-2.1-0.8c-0.4-0.2-0.9-0.4-1.4-0.3c-1.9,0.3-3.4-0.4-4.6-2c-0.5-0.6-1.1-1.2-1.8-1.6c-1.4-1.5-2.3-3.3-2.4-5.4
		c-0.1-2.1,1.1-3.5,2.8-4.2c1-0.4,2.1-0.1,2.9,0.7c0.6,0.5,1.1,1,1.2,1.9c0,0.1,0,0.2,0,0.2c-0.1,0.2-0.1,0.4-0.1,0.6
		c-0.1,0.2-0.2,0.4-0.3,0.7c-0.4,0.5-0.9,0.9-1.6,1.1c-0.4,0.1-0.4,0.3-0.3,0.6c0.3,0.5,0.6,0.9,1.2,1.1c1.3,0.5,2.6,0.7,4,0.6
		c0.7,0,1.4-0.2,2-0.5c0,0,0,0,0,0c0.4,0,0.6-0.1,0.8-0.4c0,0,0.1,0,0.1,0c0.8-0.3,1.5-0.7,2-1.3c0.2-0.2,0.5-0.3,0.7-0.5
		c0.2-0.1,0.3-0.2,0.4-0.4c0.4-0.2,0.6-0.5,0.9-0.8c0.6-0.5,1.1-1.1,1.6-1.8c0-0.1,0.1-0.1,0.1-0.2c0.1-0.1,0.2-0.1,0.2-0.2
		c0.7-1.2,1.4-2.3,2-3.6c0.6-1.2,1.1-2.5,1.6-3.7c0.5-1.2,1-2.5,1.5-3.7c0.8-1.8,1.5-3.7,2.2-5.5c0.5-1.2,0.9-2.4,1.3-3.6
		c0.3-0.9,0.6-1.8,1-2.6c0.7-1.7,1.3-3.4,1.9-5c0.3-0.8,0.6-1.7,0.9-2.5c0.5-1.3,0.9-2.6,1.4-3.8c0.4-1,0.7-2.1,1.2-3.1
		c0.3-0.7,0.6-1.4,0.7-2.1c0.1-0.4,0.4-0.8,0.5-1.3c0.1-0.5,0-0.8-0.4-0.8c-0.5,0-0.9-0.2-1.2-0.5c-0.6-0.5-1.2-1-1.5-1.8
		c-0.1-0.3-0.4-0.4-0.7-0.4c-1,0.1-1.9-0.1-2.8-0.5c-0.4-0.2-0.8-0.4-1.2-0.7c-1.1-0.8-2-1.7-2.3-3c-0.5-1.7,0-3.1,1.5-4.1
		c0.3-0.2,0.4-0.2,0.6,0.2c0.8,1.8,2.6,3.2,4.9,3c2-0.2,4-0.5,6-0.3c0.3,0,0.4-0.1,0.5-0.4c0.2-0.8,0.1-1.6-0.2-2.3
		c-0.1-0.3-0.4-0.4-0.7-0.4c-0.6,0.1-1.1,0.3-1.4,0.8c-0.1,0.2-0.2,0.4-0.3,0.6c-0.1,0.2,0,0.6-0.3,0.6c-0.3,0-0.5-0.3-0.7-0.6
		c-0.5-0.8-0.9-1.7-1-2.7c-0.1-1.9,0.6-3.3,2-4.4c2.4-1.9,5-2.3,7.9-1c0.5,0.2,0.6,0.2,0.6-0.4c0-1.3,0.6-2.4,1.4-3.3
		c1.1-1.4,2.5-2.6,4-3.6c0.2-0.2,0.4-0.2,0.7,0c1.8,1.4,3.6,2.8,4.9,4.7c0.4,0.6,0.8,1.3,0.9,2c0.1,0.5,0.3,0.5,0.6,0.3
		c1.4-0.6,2.9-0.7,4.4-0.3c2.5,0.7,4.3,2.2,5.3,4.6c0.3,0.6,0.2,1.3,0.2,1.9c-0.1,0.5,0.1,0.7,0.6,0.7c2.1,0,4.1,0.4,6,1.1
		c2.1,0.8,3.9,2,5.5,3.6c1.1,1.1,2.2,2.3,3,3.7c0.7,1.1,1.2,2.2,1.8,3.3c0.8,1.7,1.3,3.4,1.7,5.2c0.4,1.8,0.8,3.6,1,5.5
		c0.1,0.6,0.1,1.2,0.2,1.8c0.1,0.7-0.1,0.9-0.8,0.7c-0.9-0.2-1.7-0.4-2.5,0.2c-0.2,0.1-0.3,0.2-0.5,0.4c-0.3,0.5-0.6,1-0.3,1.6
		c0.3,0.6,0.8,0.7,1.4,0.7c0.5,0,1-0.1,1.5-0.2c0.8-0.2,1.2,0.1,1.1,0.9c-0.1,2-0.4,4-0.8,5.9c-0.4,2.3-1.1,4.5-2,6.6
		c-1,2.3-2.2,4.5-3.9,6.4c-0.2,0.2-0.3,0.5-0.5,0.6c-0.3,0.3-0.2,0.6,0,0.9c0.5,0.9,0.9,1.7,1.4,2.5c1,1.6,2.2,3.2,3.7,4.4
		c2,1.6,4.1,2.8,6.8,2.6c0.9-0.1,1.7-0.1,2.6-0.5c0.7-0.3,1.2-0.7,1.6-1.3c0.2-0.3,0.2-0.4-0.1-0.7c-0.6-0.5-1.2-0.9-1.6-1.6
		c-0.8-1.5,0.4-3.4,2-3.4c1,0,1.9,0.2,2.7,0.9c0.1,0.1,0.2,0.1,0.3,0.2c0,0,0,0,0,0c0.3,0.3,0.5,0.6,0.8,0.8
		c0.1,0.4,0.5,0.6,0.6,1.1c0.5,1.7,0.3,3.3-0.4,4.9c-0.5,1.2-1.3,2.3-2.6,2.9c-0.3,0.1-0.4,0.3-0.5,0.5c-0.9,1.9-3.1,2.2-4.6,2
		c-0.4-0.1-0.7,0-1,0.2c-1.8,1.1-3.8,1.4-5.9,0.8c-0.7-0.2-1.3-0.4-1.9-0.9c-0.2-0.2-0.5-0.3-0.8-0.1c-0.3,0.2-0.1,0.5,0,0.7
		c0.6,1.4,0.3,2.7,0,4c-0.1,0.2,0,0.5-0.2,0.6c-1,1-0.8,2.1-0.7,3.3c0.2,1.9-0.4,3.4-2.1,4.5c-0.6,0.4-0.9,0.8-0.8,1.6
		c0.1,1.4-0.4,2.6-1.3,3.6c-0.2,0.2-0.6,0.5-1,0.6c-0.7,0.2-1.4,0.5-1.9,1c-0.7,0.9-1.7,1.4-2.5,2.2c-0.4,0.2-0.9,0.4-1.3,0.7
		c-0.1,0-0.2,0-0.3,0.1c-0.2,0-0.4,0.1-0.3,0.4c-0.4-0.4-0.7,0.1-1,0.1c-1,0.2-2.1,0.3-3.1,0.3c-1.4,0-2.8-0.4-4-1.2
		c-0.4-0.2-0.7-0.4-1.1-0.6c-0.1,0-0.1-0.1-0.2-0.1c0,0-0.1,0-0.1-0.1c0-0.1-0.1-0.2-0.2-0.2c-0.5-0.6-1.1-1.1-1.5-1.7
		c-0.1-0.2-0.3-0.3-0.5-0.1c-1.2,1.1-2.6,1.3-4.1,1.3c-0.3,0-0.5,0.1-0.6,0.4c-0.3,1.3-1.1,2.2-1.8,3.3c-0.5,0.8-1,1.6-1.3,2.5
		c-0.1,0.2-0.1,0.7-0.5,0.3c-0.1-0.2-0.3-0.3-0.4-0.4C70.9,117.7,70.9,117.6,70.7,117.6L70.7,117.6z"/>
	<path class="st1" d="M76.6,35.7c0,0,0.1-0.1,0.1-0.1c0.2-0.3,0.5-0.5,0.5-0.9c0.5-0.6,1-1.3,1.6-1.9c2.1-2,4.6-3,7.5-3.3
		c2.1-0.2,4.1,0,6,0.8c1.5,0.7,2.9,1.5,3.8,3c-0.4-0.3-0.9-0.7-1.3-1c-1.8-1.4-4-2-6.2-2.2c-2.1-0.2-4,0.1-5.9,0.9
		c-1.8,0.8-3.4,1.9-4.6,3.5c-1.2,1.7-2.1,3.6-2.6,5.6c-0.7,3.2-0.7,6.4,0.5,9.6c0.3,0.7,0.6,1.5,1.1,2.1c0.2,0.2,0.3,0.4,0.1,0.6
		c-1,1.1-1.4,2.5-1.7,3.9c-0.3,1.5-0.5,3-0.4,4.5c0.1,2.6,0.7,5.1,2.1,7.4c0.5,0.8,1,1.5,1.5,2.2c0,0.2,0.1,0.2,0.2,0.2
		c-0.2,0.3-0.3,0-0.4-0.1c-0.2-0.1-0.3-0.2-0.5-0.4c-0.1-0.2-0.3-0.5-0.6-0.6c0,0,0,0,0,0c-0.8-1-1.3-2.1-1.9-3.2
		c-0.1-0.2-0.1-0.4-0.2-0.5c-0.1-0.4-0.2-0.8-0.3-1.2c0-0.1,0-0.2,0-0.2c0-0.4-0.1-0.8-0.3-1.1c0-0.1,0-0.2,0-0.3
		c0-0.6-0.2-1.3-0.2-1.9c0-0.3,0-0.6,0-0.9c0-0.3,0-0.5,0-0.8c0-0.4,0-0.8,0-1.2c0.1-0.1,0.1-0.1,0-0.2c0-0.2,0-0.4,0.1-0.5
		c0.2-1.2,0.6-2.4,1-3.6c0.2-0.4,0.4-0.8,0.6-1.3c0.2-0.1,0.5-0.3,0.3-0.6c-0.7-0.9-1-1.9-1.4-2.9c0-0.1,0-0.1,0-0.2
		c0-0.2-0.1-0.3-0.2-0.4c0-0.1,0-0.1,0-0.2c0-0.1,0-0.1,0-0.2c0-0.1,0-0.1,0-0.2c0-0.3-0.1-0.6-0.2-0.9c0-0.1,0-0.1,0-0.2
		c0-1.1-0.1-2.2-0.1-3.2c0-0.4,0-0.9,0.1-1.3c0.3-1.4,0.5-2.8,1-4.1c0-0.1,0-0.2,0-0.3c0.3-0.3,0.3-0.6,0.4-0.9
		c0.1-0.1,0.1-0.3,0.2-0.4C76.4,36.2,76.6,36,76.6,35.7"/>
	<path class="st1" d="M71.5,49.3c-0.5,1.1-1,2.2-1.6,3.2c-0.1,0.1-0.2,0.3,0,0.5c0.5,0.6,0.7,1.3,1.1,2c0.1,0.2,0.1,0.4,0.4,0.4
		c0.2,0,0.2-0.2,0.3-0.4c0.4-0.9,0.7-1.8,1.3-2.6c0.1-0.1,0.1-0.2,0.1-0.3C72.4,51.2,72,50.2,71.5,49.3 M72,55.2
		c0,0.1-0.1,0.3-0.1,0.4c-0.2,0.2-0.2,0.4-0.2,0.6c-0.2,1-0.3,2-0.4,3c0,0.3,0,0.5-0.2,0.8c-0.2-0.3,0-0.6-0.2-0.9
		c0-0.1,0-0.1,0-0.2c0-0.8,0-1.5-0.2-2.2c0-0.1,0-0.1,0-0.2c-0.1-0.8-0.4-1.5-0.7-2.3c-0.1-0.3-0.2-0.6-0.5-0.7c0,0,0,0,0-0.1
		c-0.2-0.4-0.5-0.7-0.9-1c-0.2-0.2-0.1-0.4,0.1-0.6c0.2-0.2,0.5-0.4,0.6-0.7c0.2-0.1,0.2-0.3,0.3-0.4c0.5-0.8,0.8-1.7,1-2.6
		c0.3-1.1,0.4-2.3,0.5-3.5c0.1,0.2,0.1,0.3,0.2,0.4c0,0.1,0,0.2,0,0.3c0,0.4,0,0.7,0.2,1c0,0.1,0,0.2,0.1,0.3
		c0.2,1.2,0.5,2.3,1.1,3.4c0,0.2,0.1,0.3,0.2,0.5c0,0.2,0,0.3,0.2,0.4c0,0.1,0,0.1,0,0.2c0,0.2,0.1,0.3,0.2,0.4
		c0.1,0.1,0.1,0.2,0.2,0.3c0.1,0.2,0.3,0.3,0.2,0.5c-0.4,0.1-0.5,0.5-0.7,0.8C72.5,53.8,72.2,54.4,72,55.2"/>
	<path class="st1" d="M73,103.6c0-0.1,0-0.1-0.1-0.2c-0.5-1-1-1.9-1.4-2.9c0-0.1-0.1-0.1-0.2-0.1c-0.1,0-0.1,0.1-0.2,0.2
		c-0.3,1.1-0.8,2.1-1.3,3.2c-0.1,0.1-0.2,0.3,0,0.5c0.6,0.6,0.7,1.5,1.1,2.1c0.1,0.1,0.1,0.4,0.3,0.4c0.2,0,0.3-0.2,0.3-0.4
		c0.3-0.9,0.7-1.8,1.3-2.6C73,103.7,73,103.6,73,103.6 M72.5,100.9c0,0.1,0,0.2,0.1,0.3c0,0.2,0,0.3,0.2,0.4c0,0.1,0,0.1,0.1,0.2
		c0.3,0.4,0.4,0.9,0.7,1.2c0.2,0.2,0.2,0.4,0,0.7c-0.8,1.1-1.3,2.3-1.6,3.6c0,0.1,0,0.1,0,0.2c-0.2,0.1-0.2,0.3-0.2,0.5
		c-0.1,0.8-0.3,1.5-0.4,2.3c-0.2-1-0.5-1.9-0.8-2.8c-0.3-0.9-0.6-1.9-1.2-2.7c-0.3-0.4-0.3-1-0.9-1.2c0,0,0,0,0-0.1
		c0-0.1,0-0.2,0.1-0.2c1.4-1.3,2-3.1,2.3-4.9c0.1-0.7,0.2-1.4,0.3-2.1c0.2,0.3,0.2,0.7,0.3,1C71.8,98.6,71.9,99.8,72.5,100.9"/>
	<path class="st1" d="M99.8,33.4c0.3-0.3,0.5,0,0.6,0.1c0.9,1.1,1.6,2.4,2.2,3.7c1,2.1,1.7,4.3,2.2,6.5c0.4,1.6,0.6,3.2,0.8,4.8
		c0,0.3,0.1,0.5-0.4,0.5c-1.9,0.1-3.3,1-3.6,3c0,0.1,0,0.2,0,0.3c0,0.1,0,0.3,0,0.4c0,0.2,0.1,0.5,0.2,0.6c0,0.1,0.1,0.2,0.1,0.3
		c0,0.1-0.1,0.2-0.2,0.2c-0.1-0.1-0.2-0.2-0.2-0.3c-0.4-0.6-0.6-1.2-0.4-1.9c0.1-0.4,0.2-0.7,0.3-1.1c0.1-0.1,0.2-0.3,0.2-0.4
		c0.3-0.1,0.4-0.4,0.5-0.6c0.2-0.1,0.4-0.2,0.6-0.4c0.1,0,0.2-0.1,0.3-0.2c0.3-0.1,0.6-0.2,0.9-0.3c0.2,0,0.4-0.1,0.6-0.1
		c0.4,0,0.6-0.2,0.5-0.7c-0.1-0.4-0.1-0.8-0.2-1.3c-0.2-1-0.3-2-0.6-3c-0.1-0.9-0.5-1.7-0.7-2.6c-0.7-2.2-1.7-4.3-2.9-6.3
		C100.4,34.3,100.1,33.9,99.8,33.4"/>
	<path class="st1" d="M73,86.9c0,0.8,0,1.6,0.1,2.5c0,0.2,0,0.4,0,0.6c-0.1,1.2,0.2,2.4,0.2,3.5c0,0.2,0.1,0.4-0.2,0.7
		c-0.2-0.9-0.3-1.7-0.5-2.5c0-0.2,0-0.4,0-0.5c0-0.1,0-0.3,0-0.4c-0.3-2.1-0.2-4.3-0.2-6.4c0-0.1,0-0.3-0.1-0.4c0-1.4,0-2.8,0-4.2
		c0.2-1.1,0.1-2.1,0.1-3.2c0-1.2,0.2-2.4,0.3-3.6c0-0.2,0-0.4,0.2-0.5c0,0.1,0,0.2,0,0.3c-0.1,0.1-0.1,0.3-0.1,0.5c0,0.5,0,1,0,1.6
		c0,0.3,0,0.6,0,0.9c0,0.4,0,0.8,0,1.1c0,0.3,0,0.6,0,0.9c0,0.2,0,0.5,0,0.7c0,1,0,1.9,0,2.9c0,0.4,0,0.7,0,1.1c0,0.1,0,0.2,0,0.3
		c0,0.1,0,0.2,0,0.3c0,0.1,0,0.2,0,0.3c0,0.6,0,1.2,0,1.8c-0.1,0.5-0.1,1,0.1,1.5C73,86.6,73,86.8,73,86.9"/>
	<path class="st1" d="M67,72.9c-0.3,0.7-1,1-1.6,1.4c-2.9,2.1-6.2,3.2-9.8,2.9c-1.9-0.1-3.7-0.8-5.2-2c0,0,0,0,0,0
		c0.1-0.2,0.2-0.1,0.3-0.1c0.3,0.1,0.5,0.3,0.9,0.4c0.3,0.2,0.6,0.2,0.9,0.3c0.4,0.3,0.8,0.4,1.3,0.5c0.1,0,0.2,0,0.3,0.1
		c0.1,0.1,0.1,0.1,0.2,0.1c0.2,0,0.4,0.1,0.7,0.1c0.2,0.1,0.4,0.1,0.7,0.1c0.6,0,1.3,0,1.9,0c0.1,0,0.2,0,0.3-0.1c0.2,0,0.4,0,0.6,0
		c0.1,0,0.2,0,0.3-0.1c0.1,0,0.1,0,0.2,0c0.5-0.1,1-0.2,1.4-0.3c0.4-0.1,0.9-0.2,1.3-0.5c0.1,0,0.1,0,0.2,0c0.2,0,0.4-0.1,0.5-0.2
		c0.1,0,0.2-0.1,0.2-0.1c0.2-0.1,0.4-0.1,0.5-0.3c0.2,0,0.4-0.1,0.5-0.2c0.1,0,0.2-0.1,0.3-0.2c0.7-0.3,1.3-0.7,2-1.1
		c0.1,0,0.1-0.1,0.2-0.1c0.1,0,0.2-0.1,0.2-0.1c0.1,0,0.2-0.1,0.3-0.2C66.8,72.9,66.9,72.9,67,72.9"/>
	<path class="st1" d="M69.2,99.6c0.5-0.8,0.7-1.6,1-2.5c0.4,0.8-0.9,4.7-2,5.7c0.1-1.1,0.6-1.9,0.9-2.9
		C69.2,99.8,69.2,99.7,69.2,99.6"/>
	<path class="st1" d="M70.4,45.3c0.1,0.9-0.1,1.7-0.4,2.5c-0.3,1.2-0.8,2.3-1.4,3.4c-0.1,0.1-0.2,0.2-0.2,0.3c0,0-0.1,0-0.1,0
		c0-0.1,0-0.2,0-0.3c0.3-0.7,0.6-1.5,0.7-2.2c0.1-0.2,0.1-0.3,0.2-0.5c0.5-0.8,0.8-1.6,1-2.5C70.3,45.7,70.4,45.5,70.4,45.3"/>
	<path class="st1" d="M50.8,67.3c0.2-0.3,0.5-0.1,0.7,0c0.5,0.2,0.8,0.6,0.8,1.2c0,0.5-0.1,1-0.7,1.3c0.3-0.9,0.4-1.7-0.4-2.2
		C51.1,67.5,51,67.4,50.8,67.3"/>
	<path class="st1" d="M67.1,72.8c0,0.1-0.1,0-0.1,0.1C67,72.8,67.1,72.8,67.1,72.8"/>
	<path class="st1" d="M52.2,32.5c0.1,0.1,0.2,0.1,0.4,0.3c-2.1,0-3.8-0.5-5-2.1c-0.1-0.2-0.1-0.3-0.2-0.5c0,0,0.1-0.1,0.1-0.1
		c0.2,0.2,0.4,0.3,0.5,0.5c0,0.1,0.1,0.2,0.3,0.2c0,0,0,0,0,0c0.1,0.2,0.2,0.3,0.3,0.3l0,0c0.1,0.2,0.2,0.2,0.3,0.2
		c0.1,0,0.2,0.1,0.3,0.1c0,0.1,0.1,0.2,0.3,0.2c0.1,0,0.1,0,0.2,0.1c0.2,0.2,0.4,0.2,0.6,0.3c0.1,0,0.2,0,0.3,0.1
		c0.1,0.1,0.2,0.2,0.3,0.1c0.1,0,0.1,0,0.2,0c0.1,0.1,0.1,0.1,0.2,0.1C51.6,32.4,51.9,32.5,52.2,32.5"/>
	<path class="st1" d="M57.6,34.3c-0.5,0.6-1,1.1-1.9,1c-0.4-0.1-0.7-0.3-1-0.5c-0.1-0.2-0.2-0.4-0.3-0.5c0-0.1,0-0.1,0-0.2
		c1.3,1.1,2.4,1,3.3-0.7C57.8,33.8,57.7,34.1,57.6,34.3"/>
</g>
</svg>
